<?xml version="1.0" encoding="UTF-8" standalone="no"?>
<svg
   version="1.1"
   id="Layer_1"
   x="0px"
   y="0px"
   width="93.654037"
   viewBox="0 0 312.17908 295.6765"
   enable-background="new 0 0 512 512"
   xml:space="preserve"
   sodipodi:docname="tab_3_mod.svg"
   height="88.703247"
   inkscape:version="1.2.2 (b0a84865, 2022-12-01)"
   xmlns:inkscape="http://www.inkscape.org/namespaces/inkscape"
   xmlns:sodipodi="http://sodipodi.sourceforge.net/DTD/sodipodi-0.dtd"
   xmlns="http://www.w3.org/2000/svg"
   xmlns:svg="http://www.w3.org/2000/svg"><defs
   id="defs13" /><sodipodi:namedview
   id="namedview11"
   pagecolor="#ffffff"
   bordercolor="#000000"
   borderopacity="0.25"
   inkscape:showpageshadow="2"
   inkscape:pageopacity="0.0"
   inkscape:pagecheckerboard="true"
   inkscape:deskcolor="#d1d1d1"
   showgrid="false"
   showborder="false"
   inkscape:zoom="3.6875"
   inkscape:cx="93.830509"
   inkscape:cy="25.355932"
   inkscape:window-width="1473"
   inkscape:window-height="791"
   inkscape:window-x="89"
   inkscape:window-y="45"
   inkscape:window-maximized="0"
   inkscape:current-layer="Layer_1" />

<path
   id="path4"
   d="M 204.47197 0 C 145.81367 0.0080999841 87.154232 -0.015927112 28.495998 0.045572764 C 10.805534 0.064122728 0.018520778 11.1141 0.01302079 28.925684 C 0.0054608046 53.089266 -0.0046995827 77.24883 0.0065103949 101.41242 C 0.031880344 156.07279 0.087314312 210.73588 0.071614344 265.39625 C 0.069737346 271.90477 1.399951 277.8038 5.2799302 283.24124 C 12.376201 293.18602 22.511342 295.54438 33.80197 295.53938 C 107.29322 295.50938 180.78649 295.50048 254.77779 295.48078 C 263.94198 295.53929 272.60601 295.51934 281.26859 295.66958 C 298.96859 295.97653 311.96247 283.72922 312.01067 266.08635 C 312.15184 214.4269 312.09184 162.76603 312.17994 111.1064 C 312.1879 106.4303 310.92288 102.22382 308.53412 98.333004 C 306.99329 95.82317 306.37801 93.243841 306.39871 90.299177 C 306.47945 78.801569 306.39095 67.298982 306.35965 55.800594 C 306.31701 40.148546 296.82437 30.520717 281.16442 30.449117 C 265.16754 30.375987 249.16954 30.321385 233.1763 30.585835 C 229.10873 30.653115 227.61473 29.778556 227.9745 25.481686 C 228.33126 21.220614 228.64767 16.81397 226.82216 12.669228 C 222.51382 2.8873687 214.31469 -0.000999998 204.47197 0 z M 119.86939 53.619612 C 169.67776 53.650212 219.4876 53.69311 269.29597 53.75633 C 278.27938 53.76773 283.57189 59.226785 283.63186 68.534927 C 283.67906 75.863461 283.38014 83.203046 283.6579 90.52053 C 283.79236 94.063024 282.41875 94.505322 279.36104 94.498382 C 234.38381 94.396242 189.40803 94.581804 144.43311 94.237966 C 136.31638 94.175866 129.83716 96.226576 124.30948 102.00487 C 121.78223 104.64668 118.85171 106.89247 116.27565 109.49182 C 114.14819 111.63852 111.94068 113.32563 108.81474 112.01134 C 105.56301 110.64419 105.7047 107.64947 105.71579 104.7783 C 105.74599 96.948886 105.76531 89.116294 105.78741 80.78749 C 105.78141 75.95698 105.67681 71.626132 105.78741 67.297952 C 105.9947 59.160988 111.71679 53.614592 119.86939 53.619612 z M 82.922899 71.23023 C 82.922899 89.076512 82.922619 106.68146 82.922899 124.78474 C 82.951999 173.10276 82.94609 220.92495 83.09217 268.74259 C 83.10217 271.87412 82.402365 272.61549 79.277078 272.49909 C 71.957446 272.22642 64.621698 272.41903 57.291475 272.46003 C 49.139933 272.50563 45.128397 268.59157 45.123547 260.16189 C 45.113047 242.00185 45.279546 223.83647 45.279796 205.67639 C 45.280216 175.18732 45.331312 144.69865 45.045422 114.21186 C 44.995922 108.9287 46.435131 104.83219 50.071447 101.25617 C 58.977788 92.4975 67.844625 83.699258 76.770576 74.960687 C 78.404195 73.361338 80.285892 72.038879 82.922899 71.23023 z " />


</svg>
