<?xml version="1.0" encoding="UTF-8" standalone="no"?>
<svg
   version="1.1"
   id="Layer_1"
   x="0px"
   y="0px"
   width="69.621002"
   viewBox="0 0 348.10501 345.6652"
   enable-background="new 0 0 512 512"
   xml:space="preserve"
   sodipodi:docname="media_2_mod.svg"
   height="69.133041"
   inkscape:version="1.2.2 (b0a84865, 2022-12-01)"
   xmlns:inkscape="http://www.inkscape.org/namespaces/inkscape"
   xmlns:sodipodi="http://sodipodi.sourceforge.net/DTD/sodipodi-0.dtd"
   xmlns="http://www.w3.org/2000/svg"
   xmlns:svg="http://www.w3.org/2000/svg"><defs
   id="defs15" /><sodipodi:namedview
   id="namedview13"
   pagecolor="#ffffff"
   bordercolor="#000000"
   borderopacity="0.25"
   inkscape:showpageshadow="2"
   inkscape:pageopacity="0.0"
   inkscape:pagecheckerboard="true"
   inkscape:deskcolor="#d1d1d1"
   showgrid="false"
   showborder="false"
   inkscape:zoom="10.429825"
   inkscape:cx="25.743481"
   inkscape:cy="26.031117"
   inkscape:window-width="1352"
   inkscape:window-height="763"
   inkscape:window-x="1920"
   inkscape:window-y="135"
   inkscape:window-maximized="0"
   inkscape:current-layer="Layer_1" />

<path
   id="path4"
   d="M 258.00781 0.0097656249 C 254.95568 0.09869954 251.9051 0.90440506 248.85742 2.0996094 C 231.54769 8.8879326 214.25065 15.713194 196.57226 22.617187 C 191.68366 24.391505 187.1618 26.052209 182.66601 27.773437 C 138.80125 44.56731 94.948044 61.384113 51.074218 78.154296 C 37.896521 83.191281 24.58431 87.886699 11.484375 93.115233 C 1.1278865 97.248779 -2.3175397 105.7779 1.5234375 116.16211 C 2.3302067 118.34324 3.0722362 120.56062 3.7890625 122.77344 C 25.094394 188.54131 47.707217 253.87384 68.398437 319.84375 C 71.994813 331.31019 82.617093 336.22777 93.789061 331.8457 C 100.28398 329.29815 106.63481 326.3276 113.22265 324.0625 C 116.60032 322.90116 117.17897 321.12224 117.16797 317.90039 C 117.04031 280.41751 117.06188 242.93249 117.05078 205.44922 C 117.04478 183.49236 117.05078 161.53381 117.05078 138.92578 C 112.36914 140.8443 108.30851 142.63338 104.16016 144.17969 C 98.568296 146.26406 93.476482 149.66092 87.568358 150.84961 C 80.980535 152.17505 74.874006 148.26438 73.330077 142.07031 C 71.969199 136.61059 75.048982 132.23827 81.660155 129.83398 C 87.587239 127.67847 93.391357 125.18914 99.326171 123.05664 C 105.67745 120.77455 111.5711 117.42587 118.78906 117.45117 C 175.0974 117.64833 231.40588 117.58055 287.71484 117.59765 C 294.60079 117.59994 301.48871 117.59765 308.73047 117.59765 C 307.54886 114.22487 306.49475 111.44389 305.5957 108.61328 C 295.42918 76.604323 285.26198 44.599587 275.16601 12.568359 C 273.74709 8.0667499 271.3587 4.4994409 267.1582 2.2070312 C 264.11009 0.54353539 261.05994 -0.07916829 258.00781 0.0097656249 z M 249.39453 38.476562 C 253.88349 38.702073 257.32983 40.888791 259.64843 45.058593 C 263.23071 51.500957 260.53759 59.262334 253.07617 63.593749 C 251.15685 64.707958 249.03312 65.574278 246.92383 66.367187 C 235.71156 70.581983 224.44697 74.68277 213.25195 78.935546 C 198.04378 84.71285 182.89088 90.598606 167.70508 96.42578 C 164.32539 97.722619 160.94035 99.112448 157.16797 98.974608 C 149.4607 98.693009 143.01073 93.801697 141.9043 87.490233 C 140.72192 80.74554 144.37026 75.976799 153.84765 72.246093 C 182.9439 61.416184 211.58498 50.820726 240.20508 40.185546 C 243.63405 38.911354 246.70115 38.341255 249.39453 38.476562 z " />
<path
   id="path6"
   d="M 331.83593 139.6289 C 272.35045 139.6008 212.86437 139.60257 153.3789 139.63867 C 142.92269 139.64502 136.66219 146.17274 136.67969 156.5332 C 136.77425 212.51747 136.8535 268.50786 136.875 324.49218 C 136.88061 339.10026 143.17598 345.5927 157.69531 345.5957 C 210.8491 345.6076 264.00289 345.6114 317.65625 345.625 C 322.32113 345.6276 326.49167 345.7214 330.65429 345.61523 C 341.29551 345.34387 347.97444 339.0171 347.99804 328.41797 C 348.12624 270.77019 348.12694 213.11666 348.05664 155.46875 C 348.04517 146.05484 341.29133 139.6329 331.83593 139.6289 z M 198.62304 161.71875 C 201.51245 161.94032 204.53405 163.13852 207.56836 165.34179 C 226.55393 179.12762 245.4713 193.01793 264.43359 206.83594 C 269.94724 210.85379 275.52252 214.76938 281.35742 218.95508 C 286.4042 222.52328 291.18997 225.84431 295.92773 229.22851 C 305.89946 236.35153 306.04225 244.84916 296.28906 252.20703 C 266.92111 274.36244 237.39617 296.31588 208.63281 319.25781 C 203.53266 323.3257 198.3272 325.70132 192.20703 322.42187 C 185.89152 319.03775 182.41315 313.49304 182.32422 306.21093 C 182.23682 299.04899 182.47293 291.89018 182.46094 284.72656 C 182.40324 250.23525 182.31735 215.74114 182.20703 181.25 C 182.19233 176.64273 182.97758 172.37588 185.79101 168.54492 C 189.35718 163.68894 193.80736 161.34946 198.62304 161.71875 z " />


</svg>
