<?xml version="1.0" encoding="UTF-8" standalone="no"?>
<svg
   version="1.1"
   id="Layer_1"
   x="0px"
   y="0px"
   width="110.05531"
   viewBox="0 0 366.85104 287.65729"
   enable-background="new 0 0 512 512"
   xml:space="preserve"
   sodipodi:docname="group 2_mod.svg"
   height="86.297188"
   inkscape:version="1.2.2 (b0a84865, 2022-12-01)"
   xmlns:inkscape="http://www.inkscape.org/namespaces/inkscape"
   xmlns:sodipodi="http://sodipodi.sourceforge.net/DTD/sodipodi-0.dtd"
   xmlns="http://www.w3.org/2000/svg"
   xmlns:svg="http://www.w3.org/2000/svg"><defs
   id="defs21" /><sodipodi:namedview
   id="namedview19"
   pagecolor="#ffffff"
   bordercolor="#000000"
   borderopacity="0.25"
   inkscape:showpageshadow="2"
   inkscape:pageopacity="0.0"
   inkscape:pagecheckerboard="true"
   inkscape:deskcolor="#d1d1d1"
   showgrid="false"
   inkscape:zoom="0.4609375"
   inkscape:cx="196.33898"
   inkscape:cy="149.69492"
   inkscape:window-width="1460"
   inkscape:window-height="704"
   inkscape:window-x="93"
   inkscape:window-y="86"
   inkscape:window-maximized="0"
   inkscape:current-layer="Layer_1" />
<path
   fill="#000000"
   opacity="1"
   stroke="none"
   d="m 227.90093,207.06896 c 5.76343,2.71433 11.21051,5.21674 16.59573,7.84598 4.93342,2.40863 7.30555,6.1539 7.23844,11.94611 -0.21234,18.32144 -0.13318,36.64838 0.0635,54.97073 0.0456,4.25037 -1.15204,5.83673 -5.65119,5.81558 -33.98187,-0.15972 -67.96515,-0.16855 -101.94725,-0.0362 -10.48662,0.0409 -20.95727,-1.30621 -31.45279,-0.23264 -2.51031,0.25681 -3.95361,-0.55865 -3.92155,-3.64303 0.19378,-18.65427 0.33191,-37.31156 0.19229,-55.96558 -0.0471,-6.29876 2.49766,-10.59009 8.02936,-13.12845 13.01004,-5.97006 26.085,-11.79855 39.11107,-17.734 1.30856,-0.59626 2.46824,-0.63651 3.83346,-0.254 13.47057,3.77414 27.00203,3.00567 40.48702,0.18707 2.80569,-0.58649 5.11035,-0.32077 7.6419,0.93268 6.41471,3.17599 12.9498,6.10886 19.77997,9.29571 z"
   id="path2" />
<path
   fill="#000000"
   opacity="1"
   stroke="none"
   d="m 228.9056,93.22378 c 21.72675,37.56638 -0.19138,82.86752 -42.74579,88.36511 -19.14685,2.47357 -34.85521,-5.19848 -47.75886,-19.00528 -14.61754,-15.64059 -19.41744,-34.04211 -13.11902,-54.45601 6.71902,-21.77722 21.61236,-35.52675 44.13859,-40.34004 22.51636,-4.81117 46.98145,5.65277 59.48508,25.43622 z"
   id="path4" />
<path
   fill="#000000"
   opacity="1"
   stroke="none"
   d="m 261.60299,152.00616 c -4.46607,-23.38727 2.40524,-42.12311 22.33859,-54.65668 18.38278,-11.55864 37.64179,-11.26356 56.07004,0.2869 17.92837,11.23715 26.67929,27.95399 24.29019,49.01684 -2.58688,22.8068 -15.80209,37.58802 -38.05737,43.64246 -28.31638,7.70334 -56.5098,-8.99136 -64.64145,-38.28952 z"
   id="path6" />
<path
   fill="#000000"
   opacity="1"
   stroke="none"
   d="m 271.50753,265.4877 c 0.0428,-13.30042 -0.35312,-26.11472 0.42203,-38.93351 0.82547,-13.65026 -5.36609,-23.27173 -17.96054,-28.74029 -9.7074,-4.215 -19.4058,-8.45059 -29.90116,-13.02246 8.93128,-6.12549 14.36945,-14.69632 20.59543,-22.45404 2.64282,1.34793 3.10483,3.59607 4.08987,5.45712 9.98636,18.86768 23.98377,33.19455 45.25251,38.69263 11.07754,2.86361 22.3768,3.14639 33.51538,-0.23719 1.85632,-0.56393 3.38296,-0.52539 5.16794,0.51874 9.41552,5.50772 19.57977,9.17575 30.24167,11.31683 2.81387,0.5651 3.93759,1.38645 3.92019,4.39774 -0.11636,20.15149 -0.11188,40.30432 -0.008,60.45599 0.0178,3.46036 -1.26346,4.72226 -4.68045,4.6854 -24.8085,-0.26795 -49.62354,0.50793 -74.42957,-0.51584 -3.47836,-0.14359 -6.98425,0.13379 -10.46566,0.38126 -3.37339,0.23971 -5.36112,-0.56858 -5.30039,-4.56104 0.0859,-5.64908 -0.28229,-11.30505 -0.45883,-17.44134 z"
   id="path8" />
<path
   fill="#000000"
   opacity="1"
   stroke="none"
   d="M 19.639526,102.77267 C 36.61192,88.91599 54.89001,85.10308 74.8053,94.55401 c 19.42629,9.21887 29.7137,24.96082 29.77636,46.43182 0.0666,22.83042 -17.81813,44.23932 -40.21682,49.52747 -23.07747,5.4484 -46.129596,-4.53406 -56.8161187,-25.89456 -9.669434,-19.32752 -7.65367205,-43.23184 12.0908047,-61.84607 z"
   id="path10" />
<path
   fill="#000000"
   opacity="1"
   stroke="none"
   d="m 114.48492,166.85833 c 0.71385,-1.31384 0.96179,-2.56473 2.84634,-3.0072 5.34886,7.84372 11.07635,15.70807 20.60162,20.92136 -8.40518,3.66915 -15.66317,6.88556 -22.96197,10.00656 -4.7544,2.03305 -9.37641,4.29113 -13.74343,7.07534 -7.66392,4.88611 -11.35896,12.06385 -11.45257,20.9271 -0.20748,19.64563 -0.24028,39.29526 -0.0785,58.94104 0.0377,4.57593 -1.3759,5.98602 -6.00856,5.91266 -23.63424,-0.37442 -47.27979,0.47485 -70.911755,-0.57843 -1.161835,-0.0518 -2.333389,-0.0189 -3.4942697,0.0624 -9.09719105,0.63708 -9.12249805,0.6437 -9.13739805,-8.21238 -0.03054,-18.14898 0.101898,-36.29986 -0.142845,-54.44573 -0.05618,-4.16465 1.37748005,-5.96802 5.29584505,-6.8184 9.6442257,-2.09301 18.8404237,-5.48339 27.2481727,-10.72992 1.64724,-1.02789 3.15908,-0.89456 4.75682,-0.50518 33.92233,8.26724 63.27768,-8.83283 77.18245,-39.54926 z"
   id="path12" />
<path
   fill="#000000"
   opacity="1"
   stroke="none"
   d="m 274.15124,81.32131 c -8.5792,5.63341 -15.10715,12.91544 -21.82355,21.25452 -2.698,-7.37227 -5.68179,-13.7731 -9.60043,-19.6953 C 232.18688,66.951 217.84844,56.09484 199.38006,51.17578 194.65288,49.91668 193.67254,47.87522 194.49251,43.47865 198.86465,20.0373 213.04363,4.6477404 235.61571,0.94991047 267.32113,-4.2441896 291.34093,19.41044 293.98208,43.86102 c 1.04516,9.67584 -1.11585,18.44258 -3.80429,27.37213 -0.60956,2.02463 -2.11542,2.79581 -3.7833,3.63672 -4.01156,2.02261 -7.96689,4.15689 -12.24325,6.45144 z"
   id="path14" />
<path
   fill="#000000"
   opacity="1"
   stroke="none"
   d="M 149.48647,55.63441 C 130.1766,65.21813 117.67649,80.39189 110.55114,99.89349 108.00478,99.76078 107.3025,98.04855 106.2656,96.83813 98.01952,87.21223 88.54719,79.25772 76.39207,75.02691 74.76395,74.46023 73.87675,73.55682 73.3915,72.05036 66.44225,50.47657 68.18067,30.55781 85.27733,14.04077 99.51668,0.28416047 116.64161,-3.2043696 135.15455,2.8750604 c 17.55143,5.76368 28.79822,17.9920596 32.6018,36.4619496 0.20093,0.97573 0.42157,1.94779 0.60242,2.92721 1.16074,6.28608 0.70754,7.01112 -5.40666,8.5083 -4.54059,1.11183 -8.87126,2.80095 -13.46564,4.86189 z"
   id="path16" />
</svg>
