<?xml version="1.0" encoding="utf-8"?>
<!-- Generator: Adobe Illustrator 24.3.0, SVG Export Plug-In . SVG Version: 6.00 Build 0)  -->
<svg version="1.1" id="Layer_1" xmlns="http://www.w3.org/2000/svg" xmlns:xlink="http://www.w3.org/1999/xlink" x="0px" y="0px"
         viewBox="0 0 201 41" style="enable-background:new 0 0 201 41;" xml:space="preserve">
<style type="text/css">
        .st0{fill:#CE1B2D;}
        .st1{fill:#FFFFFF;}
        .st2{fill:none;}
        .st3{font-family:'IBMPlexSans-Bold';}
        .st4{font-size:21px;}
</style>
<path class="st0" d="M20.5,0h160C191.8,0,201,9.2,201,20.5l0,0c0,11.3-9.2,20.5-20.5,20.5h-160C9.2,41,0,31.8,0,20.5l0,0
        C0,9.2,9.2,0,20.5,0z"/>
<path class="st1" d="M70.2,27.6L68.6,23h-6.3l-1.6,4.6h-1.3l5.2-14.8h1.6l5.2,14.8L70.2,27.6z M65.5,14L65.5,14l-2.9,7.9h5.6
        L65.5,14z"/>
<path class="st1" d="M72.7,25.8l0.9-0.7c0.8,1.1,2,1.8,3.4,1.7c1.7,0,2.6-0.7,2.6-2c0-1.1-0.7-1.8-2.2-2l-0.9-0.1
        c-2-0.3-3.3-1.1-3.3-3s1.6-3,3.7-3c1.4-0.1,2.8,0.6,3.7,1.7L79.8,19c-0.7-0.9-1.8-1.4-3-1.4c-1.6,0-2.5,0.7-2.5,1.9s0.8,1.7,2.3,2
        l0.9,0.1c2.2,0.3,3.2,1.3,3.2,3c0,2-1.5,3.2-3.9,3.2C75.2,28,73.7,27.2,72.7,25.8z"/>
<path class="st1" d="M83.7,11.9h1.2v10.4H85l1.7-1.8l3.6-3.7h1.5l-4.2,4.4l4.7,6.4h-1.5l-4.1-5.7l-1.7,1.7v3.9h-1.2V11.9z"/>
<path class="st1" d="M157.3,19.6h0.9c-1.2,1.1-1.9,2.7-1.9,4.3v0.9c0.1,1.6,0.7,3.2,1.9,4.3h-0.9c-1.3-1.2-2-3-1.9-4.8
        C155.4,22.5,156.1,20.8,157.3,19.6z"/>
<path class="st1" d="M159,20.2h3.1c1-0.1,1.9,0.6,2,1.6c0,0.1,0,0.2,0,0.3c0.1,0.8-0.5,1.5-1.2,1.6v0.1c0.9,0.1,1.6,0.8,1.5,1.7
        c0.1,1.1-0.8,2.1-1.9,2.1c0,0,0,0,0,0H159V20.2z M160,23.4h2c0.5,0,1-0.3,1-0.8c0-0.1,0-0.1,0-0.2V22c0-0.5-0.3-1-0.8-1
        c-0.1,0-0.1,0-0.2,0h-2V23.4z M160,26.7h2.1c0.5,0.1,1-0.3,1.1-0.9c0-0.1,0-0.1,0-0.2v-0.4c0-0.6-0.4-1-1-1c0,0-0.1,0-0.1,0H160
        V26.7z"/>
<path class="st1" d="M165.9,27.6v-7.4h4.6v0.9h-3.6v2.3h3.3v0.9h-3.3v2.4h3.6v0.9L165.9,27.6z"/>
<path class="st1" d="M173.8,21.1h-2.3v-0.9h5.6v0.9h-2.3v6.5h-1L173.8,21.1z"/>
<path class="st1" d="M182.1,27.6l-0.7-2.1h-2.9l-0.7,2.1h-1l2.6-7.4h1.3l2.6,7.4H182.1z M180,21.2L180,21.2l-1.2,3.5h2.4L180,21.2z"
        />
<path class="st1" d="M184.3,29.1h-0.9c1.2-1.1,1.9-2.7,1.9-4.3v-0.9c0-1.6-0.7-3.2-1.9-4.3h0.9c1.3,1.2,2,3,1.9,4.7
        C186.2,26.1,185.5,27.8,184.3,29.1z"/>
<rect x="99.1" y="12" class="st2" width="45.3" height="25.2"/>
<text transform="matrix(1 0 0 1 99.0702 27.5595)" class="st1 st3 st4">ADA</text>
</svg>
