<svg xmlns="http://www.w3.org/2000/svg" viewBox="0 0 201 41"><defs><style>.a{fill:#ce1b2d;}.b{fill:#fff;}</style></defs><rect class="a" width="201" height="41" rx="20.5"/><path class="b" d="M33,20.27c.15.16-2.45,2.79-6.11,7-.78.89-1.45,1.6-2,2.13a32.42,32.42,0,0,1-2.39,2.23,9.64,9.64,0,0,1-2.14,1.48c-1.31.65-1.67.33-1.84.24-.52-.28-.46-1.14-.45-1.44.05-1.85,3.75-8.36,3.23-13.08-.05-.43-.47-3.87-2.94-5.42-1.66-1-3.23-.52-3.51-1.46-.35-1.21,1.5-3.62,3.93-4.24a6.24,6.24,0,0,1,6.46,2.71,6.69,6.69,0,0,1,1,3.23c.13,1.18.21,4-1.64,8.52-1.71,4.2-3.72,6.48-3.39,7,.16.27.77-.05,1.59-.48a10.39,10.39,0,0,0,1.72-1.2l.67-.54c.3-.25.54-.47.7-.61l.18-.16C26.27,26,32.76,20,33,20.27Z"/><path class="b" d="M32.45,20.73c-.15-.16,2.45-2.79,6.11-7,.78-.89,1.45-1.6,2-2.13A32.42,32.42,0,0,1,42.92,9.4a9.64,9.64,0,0,1,2.14-1.48c1.31-.65,1.67-.33,1.84-.24.52.28.46,1.14.46,1.44C47.3,11,43.6,17.48,44.12,22.2c.05.43.48,3.87,2.94,5.42,1.66,1,3.23.52,3.51,1.46.35,1.21-1.5,3.62-3.93,4.24a6.24,6.24,0,0,1-6.46-2.71,6.69,6.69,0,0,1-1-3.23c-.13-1.18-.21-4,1.64-8.52,1.71-4.2,3.73-6.48,3.39-7-.16-.27-.77.05-1.59.48a10.39,10.39,0,0,0-1.72,1.2l-.67.54c-.3.25-.54.47-.7.61l-.18.16C39.18,15,32.69,21,32.45,20.73Z"/><circle class="b" cx="32.42" cy="20.74" r="1.45"/><path class="b" d="M70.2,27.62,68.59,23H62.3l-1.61,4.6H59.42l5.23-14.79h1.63l5.25,14.79ZM65.47,14h-.08l-2.78,7.88h5.64Z"/><path class="b" d="M72.74,25.79l.89-.69A4,4,0,0,0,77,26.83c1.65,0,2.6-.74,2.6-2,0-1.15-.65-1.8-2.22-2l-.89-.15c-2-.3-3.32-1.08-3.32-3s1.58-3.05,3.68-3.05a4.48,4.48,0,0,1,3.71,1.67l-.81.74a3.66,3.66,0,0,0-3-1.37c-1.55,0-2.46.72-2.46,1.94s.78,1.74,2.33,2l.87.12c2.2.34,3.24,1.29,3.24,3,0,2-1.46,3.22-3.86,3.22A4.82,4.82,0,0,1,72.74,25.79Z"/><path class="b" d="M83.74,11.94h1.2V22.3H85l1.69-1.8,3.6-3.73h1.48l-4.25,4.41,4.72,6.44H90.77l-4.11-5.68-1.72,1.74v3.94h-1.2Z"/><path class="b" d="M98,25.48l2.11-2.14A4.84,4.84,0,0,0,103.84,25c1.57,0,2.33-.7,2.33-1.78,0-.8-.34-1.39-1.72-1.58l-1.46-.2c-3.11-.4-4.53-1.92-4.53-4.4,0-2.65,2.08-4.49,5.55-4.49a6.58,6.58,0,0,1,5.12,2.07L107,16.81a3.89,3.89,0,0,0-3.18-1.39c-1.44,0-2.14.55-2.14,1.44s.53,1.39,1.76,1.59l1.46.23c3,.49,4.49,1.84,4.49,4.38,0,2.84-2.08,4.81-5.76,4.81A7.16,7.16,0,0,1,98,25.48Z"/><path class="b" d="M121,27.62l-1.06-3.52H115l-1.06,3.52h-3.26l4.87-14.79h4l4.8,14.79Zm-3.5-11.86h-.1l-1.63,5.61h3.38Z"/><path class="b" d="M128.14,27.62l-4.77-14.79h3.27l2.2,7.1L130,24.57h.07l1.12-4.64,2.2-7.1h3.16l-4.81,14.79Z"/><path class="b" d="M143.54,27.62V21.83l-5.06-9h3.6l3.18,5.89h0l3-5.89h3.49l-5.06,9v5.81Z"/><path class="b" d="M157.34,19.57h.95a6.14,6.14,0,0,0-1.94,4.31v.87a6.18,6.18,0,0,0,1.94,4.31h-.95a6.4,6.4,0,0,1-1.91-4.75A6.39,6.39,0,0,1,157.34,19.57Z"/><path class="b" d="M159,20.22h3.15a1.82,1.82,0,0,1,2,1.91,1.43,1.43,0,0,1-1.25,1.57v.06a1.63,1.63,0,0,1,1.5,1.73,2,2,0,0,1-1.91,2.13H159Zm1,3.17h2a.92.92,0,0,0,1-1v-.35a.92.92,0,0,0-1-1h-2Zm0,3.34h2.13a1,1,0,0,0,1.12-1.05v-.37a1,1,0,0,0-1.12-1H160Z"/><path class="b" d="M165.88,27.62v-7.4h4.61v.92h-3.58v2.28h3.31v.91h-3.31v2.38h3.58v.91Z"/><path class="b" d="M173.78,21.14h-2.29v-.92h5.6v.92h-2.28v6.48h-1Z"/><path class="b" d="M182.13,27.62l-.7-2.09h-2.88l-.71,2.09h-1l2.56-7.4h1.3l2.55,7.4ZM180,21.17h0l-1.17,3.45h2.38Z"/><path class="b" d="M184.26,29.06h-.95a6.18,6.18,0,0,0,1.94-4.31v-.87a6.14,6.14,0,0,0-1.94-4.31h.95a6.39,6.39,0,0,1,1.91,4.74A6.4,6.4,0,0,1,184.26,29.06Z"/></svg>