<?xml version="1.0" encoding="utf-8"?>
<!-- Generator: Adobe Illustrator 26.5.0, SVG Export Plug-In . SVG Version: 6.00 Build 0)  -->
<svg version="1.1" id="Layer_1" xmlns="http://www.w3.org/2000/svg" xmlns:xlink="http://www.w3.org/1999/xlink" x="0px" y="0px"
	 viewBox="0 0 179 46" style="enable-background:new 0 0 179 46;" xml:space="preserve">
<style type="text/css">
	.st0{fill:#E31837;}
	.st1{fill:#FFFFFF;}
	.st2{fill:#4954EA;}
	.st3{fill:#E637A5;}
	.st4{fill:#0DC9AD;}
	.st5{fill:#169BFF;}
	.st6{fill:#DBD21B;}
	.st7{fill:#4A4AAF;}
	.st8{fill:#862054;}
	.st9{fill:#1E9144;}
	.st10{fill:#CCC4BE;}
	.st11{fill:#15367A;}
	.st12{fill:#1A1718;}
	.st13{fill:#1C4D9B;}
</style>
<g>
	<path class="st0" d="M164.21,45.32c-0.04,0-0.08-0.01-0.11-0.02L146,37.68H6.46C3.45,37.68,1,35.23,1,32.22V6.14
		c0-3.01,2.45-5.46,5.46-5.46h166.08c3.01,0,5.46,2.45,5.46,5.46v26.08c0,3.01-2.45,5.46-5.46,5.46h-8.04v7.34
		C164.5,45.2,164.35,45.32,164.21,45.32z"/>
	<path class="st1" d="M172.54,1.18c2.73,0,4.96,2.22,4.96,4.96v26.08c0,2.73-2.22,4.96-4.96,4.96H165h-1v1v6.53l-17.71-7.45
		l-0.19-0.08h-0.2H6.46c-2.73,0-4.96-2.22-4.96-4.96V6.14c0-2.73,2.22-4.96,4.96-4.96H172.54 M172.54,0.18H6.46
		c-3.29,0-5.96,2.67-5.96,5.96v26.08c0,3.29,2.67,5.96,5.96,5.96H145.9l18,7.57c0.1,0.04,0.21,0.06,0.31,0.06
		c0.42,0,0.79-0.34,0.79-0.8v-6.84h7.54c3.29,0,5.96-2.67,5.96-5.96V6.14C178.5,2.85,175.83,0.18,172.54,0.18L172.54,0.18z"/>
</g>
<g>
	<g>
		<g>
			<g>
				<path class="st1" d="M35.78,18.73c0.15,0.15-2.46,2.8-6.13,7c-0.78,0.89-1.46,1.61-1.98,2.14c-1.12,1.14-1.92,1.84-2.4,2.24
					c-0.84,0.71-1.43,1.13-2.15,1.49c-1.32,0.65-1.68,0.33-1.84,0.24c-0.53-0.29-0.47-1.15-0.46-1.45c0.05-1.86,3.77-8.4,3.25-13.13
					c-0.05-0.44-0.48-3.89-2.96-5.45c-1.66-1.04-3.25-0.52-3.52-1.47c-0.35-1.22,1.51-3.63,3.94-4.25c2.54-0.65,5.22,0.79,6.49,2.72
					c0.71,1.09,0.84,2.13,0.96,3.25c0.13,1.18,0.21,3.99-1.65,8.55c-1.72,4.22-3.74,6.51-3.41,7.06c0.16,0.26,0.78-0.06,1.6-0.48
					c0.39-0.2,0.79-0.46,1.73-1.21c0.24-0.19,0.43-0.34,0.67-0.54c0.3-0.25,0.55-0.47,0.71-0.61c0.09-0.09,0.16-0.15,0.18-0.16
					C29.03,24.46,35.55,18.5,35.78,18.73z"/>
				<path class="st1" d="M35.24,19.19c-0.15-0.15,2.46-2.8,6.13-7c0.78-0.89,1.46-1.61,1.98-2.14c1.12-1.14,1.92-1.84,2.4-2.24
					c0.84-0.71,1.43-1.13,2.15-1.49c1.32-0.65,1.68-0.33,1.84-0.24c0.53,0.29,0.47,1.15,0.46,1.45c-0.05,1.86-3.77,8.4-3.25,13.13
					c0.05,0.44,0.48,3.89,2.96,5.45c1.66,1.04,3.25,0.52,3.52,1.47c0.35,1.22-1.51,3.63-3.94,4.25c-2.54,0.65-5.22-0.79-6.49-2.72
					c-0.71-1.09-0.84-2.13-0.96-3.25c-0.13-1.18-0.21-3.99,1.65-8.55c1.72-4.22,3.74-6.51,3.41-7.06c-0.16-0.26-0.78,0.06-1.6,0.48
					c-0.39,0.2-0.79,0.46-1.73,1.21c-0.24,0.19-0.43,0.34-0.67,0.54c-0.3,0.25-0.55,0.47-0.71,0.61c-0.09,0.09-0.16,0.15-0.18,0.16
					C42,13.47,35.48,19.43,35.24,19.19z"/>
			</g>
			<circle class="st1" cx="35.22" cy="19.2" r="1.45"/>
		</g>
	</g>
	<g>
		<path class="st1" d="M76.67,26.32l-1.67-4.77h-6.53l-1.67,4.77h-1.32l5.44-15.36h1.69l5.46,15.36H76.67z M71.76,12.22h-0.09
			l-2.88,8.19h5.85L71.76,12.22z"/>
		<path class="st1" d="M79.3,24.43l0.92-0.73c0.92,1.21,2,1.8,3.5,1.8c1.72,0,2.71-0.77,2.71-2.13c0-1.19-0.68-1.87-2.31-2.11
			l-0.92-0.15c-2.05-0.31-3.46-1.12-3.46-3.15c0-2.11,1.65-3.17,3.83-3.17c1.87,0,3.01,0.73,3.85,1.74l-0.84,0.77
			c-0.59-0.7-1.52-1.43-3.08-1.43c-1.61,0-2.55,0.75-2.55,2.02c0,1.3,0.81,1.8,2.42,2.07l0.9,0.13c2.29,0.35,3.37,1.34,3.37,3.15
			c0,2.09-1.52,3.34-4,3.34C81.68,26.59,80.32,25.82,79.3,24.43z"/>
		<path class="st1" d="M90.72,10.04h1.25V20.8h0.07l1.76-1.87l3.74-3.87h1.54l-4.42,4.58l4.91,6.69h-1.54l-4.27-5.9l-1.78,1.8v4.09
			h-1.25V10.04z"/>
		<path class="st1" d="M105.55,24.1l2.2-2.22c1.03,1.17,2.35,1.76,3.85,1.76c1.63,0,2.42-0.73,2.42-1.85c0-0.84-0.35-1.45-1.78-1.65
			l-1.52-0.2c-3.23-0.42-4.71-2-4.71-4.58c0-2.75,2.16-4.66,5.77-4.66c2.31,0,4.07,0.77,5.32,2.16l-2.22,2.24
			c-0.73-0.86-1.72-1.45-3.3-1.45c-1.5,0-2.22,0.57-2.22,1.5c0,1.06,0.55,1.45,1.83,1.65l1.52,0.24c3.15,0.51,4.66,1.91,4.66,4.55
			c0,2.95-2.16,4.99-5.98,4.99C108.7,26.59,106.87,25.55,105.55,24.1z"/>
		<path class="st1" d="M129.4,26.32l-1.1-3.65h-5.13l-1.1,3.65h-3.39l5.06-15.36h4.14l4.99,15.36H129.4z M125.77,14h-0.11
			l-1.69,5.83h3.52L125.77,14z"/>
		<path class="st1" d="M136.83,26.32l-4.95-15.36h3.39l2.29,7.37l1.21,4.82h0.07l1.17-4.82l2.29-7.37h3.28l-5,15.36H136.83z"/>
		<path class="st1" d="M152.83,26.32v-6.01l-5.26-9.35h3.74l3.3,6.12h0.04l3.17-6.12h3.63l-5.26,9.33v6.03H152.83z"/>
	</g>
</g>
</svg>
