<svg xmlns="http://www.w3.org/2000/svg" viewBox="0 0 201 41"><defs><style>.a{fill:#e01e37;}.b{fill:#fff;}</style></defs><rect class="a" width="201" height="41" rx="20.5"/><path class="b" d="M22.67,20.32c.12.12-1.87,2.14-4.68,5.35-.59.68-1.11,1.23-1.51,1.63-.86.87-1.47,1.41-1.83,1.71A7.78,7.78,0,0,1,13,30.15c-1,.49-1.28.25-1.41.18-.4-.22-.36-.88-.35-1.11,0-1.42,2.88-6.41,2.48-10,0-.34-.37-3-2.26-4.16-1.27-.8-2.48-.4-2.69-1.12-.26-.93,1.15-2.77,3-3.25a4.78,4.78,0,0,1,4.95,2.08,5.14,5.14,0,0,1,.73,2.48,13.45,13.45,0,0,1-1.25,6.52c-1.32,3.23-2.86,5-2.6,5.39.12.2.59,0,1.22-.37a7.74,7.74,0,0,0,1.31-.92l.52-.41c.23-.19.42-.36.54-.47l.13-.12C17.52,24.69,22.49,20.14,22.67,20.32Z"/><path class="b" d="M22.26,20.68c-.11-.12,1.88-2.14,4.69-5.35.59-.68,1.11-1.23,1.51-1.63A22.42,22.42,0,0,1,30.29,12a7.78,7.78,0,0,1,1.64-1.14c1-.49,1.28-.25,1.41-.18.4.22.36.88.35,1.11,0,1.42-2.88,6.41-2.48,10,0,.34.36,3,2.25,4.16,1.27.8,2.48.4,2.69,1.12.27.93-1.15,2.77-3,3.25a4.77,4.77,0,0,1-4.95-2.08,5.15,5.15,0,0,1-.74-2.48,13.38,13.38,0,0,1,1.26-6.52c1.31-3.23,2.86-5,2.6-5.39-.12-.2-.59,0-1.22.37a8.1,8.1,0,0,0-1.32.92l-.51.41c-.23.19-.42.36-.54.47l-.13.12C27.42,16.31,22.44,20.86,22.26,20.68Z"/><circle class="b" cx="22.24" cy="20.68" r="1.11"/><path class="b" d="M45.24,15.14V22.7c0,2.71.77,3.94,3.17,3.94s3.17-1.23,3.17-3.94V15.14h1.06v7.33c0,3.59-1.13,5.12-4.27,5.12s-4.19-1.53-4.19-5.12V15.14Z"/><path class="b" d="M57.26,27.38a1,1,0,0,1-1.1-1.11v-7H54.6V18.4h1c.49,0,.63-.17.63-.68V15.89h.92V18.4h2v.88h-2V26.5h1.89v.88Z"/><path class="b" d="M61.22,15.33v-.17a.59.59,0,0,1,.68-.63c.48,0,.69.26.69.63v.17c0,.37-.21.63-.69.63A.59.59,0,0,1,61.22,15.33Zm.19,3.07h1v9h-1Z"/><path class="b" d="M66.6,27.38a1,1,0,0,1-1.1-1.09V14.4h1V26.5h1.38v.88Z"/><path class="b" d="M69.76,15.33v-.17a.68.68,0,0,1,1.36,0v.17a.68.68,0,0,1-1.36,0ZM70,18.4h1v9H70Z"/><path class="b" d="M73.12,25.87l.74-.58a3.25,3.25,0,0,0,2.79,1.44c1.36,0,2.15-.61,2.15-1.7s-.54-1.49-1.84-1.69l-.74-.12c-1.63-.24-2.75-.89-2.75-2.5s1.32-2.53,3-2.53a3.68,3.68,0,0,1,3.07,1.39l-.66.61a3.06,3.06,0,0,0-2.46-1.14c-1.28,0-2,.6-2,1.61s.65,1.44,1.93,1.65l.71.11c1.83.28,2.69,1.07,2.69,2.5,0,1.67-1.21,2.67-3.19,2.67A4,4,0,0,1,73.12,25.87Z"/><path class="b" d="M81.5,22.89c0-2.95,1.53-4.7,3.91-4.7S89.2,20,89.2,22.61v.47H82.55v.44a2.87,2.87,0,0,0,2.93,3.19,2.78,2.78,0,0,0,2.72-1.8l.73.49a3.63,3.63,0,0,1-3.5,2.19C83,27.59,81.5,25.83,81.5,22.89Zm1-.67v.09h5.56v-.14c0-1.89-1.09-3.14-2.7-3.14S82.55,20.33,82.55,22.22Z"/><path class="b" d="M90.47,27.38v-.86l5.44-7.24H90.63V18.4H97.1v.79L91.6,26.5h5.64v.88Z"/><path class="b" d="M103.23,25.21l2.14-2.16a4.86,4.86,0,0,0,3.75,1.71c1.59,0,2.36-.7,2.36-1.8,0-.81-.35-1.41-1.74-1.6l-1.48-.2c-3.15-.4-4.58-1.95-4.58-4.45,0-2.68,2.1-4.54,5.61-4.54a6.68,6.68,0,0,1,5.19,2.1l-2.17,2.18A3.89,3.89,0,0,0,109.1,15c-1.46,0-2.17.55-2.17,1.45s.54,1.42,1.78,1.61l1.48.24c3.06.49,4.54,1.86,4.54,4.43,0,2.87-2.1,4.86-5.82,4.86A7.24,7.24,0,0,1,103.23,25.21Z"/><path class="b" d="M126.45,27.38l-1.07-3.56h-5l-1.08,3.56H116l4.92-15h4l4.86,15Zm-3.54-12h-.1l-1.65,5.68h3.43Z"/><path class="b" d="M133.69,27.38l-4.82-15h3.3l2.23,7.18,1.18,4.69h.06l1.13-4.69L139,12.42h3.2l-4.87,15Z"/><path class="b" d="M149.26,27.38V21.53l-5.12-9.11h3.64l3.22,6h0l3.09-6h3.53l-5.12,9.09v5.87Z"/><path class="b" d="M163.21,19.24h1a6.22,6.22,0,0,0-2,4.36v.87a6.22,6.22,0,0,0,2,4.36h-1a6.47,6.47,0,0,1-1.93-4.8A6.47,6.47,0,0,1,163.21,19.24Z"/><path class="b" d="M164.87,19.9h3.18a1.84,1.84,0,0,1,2,1.93,1.44,1.44,0,0,1-1.27,1.58v.07a1.64,1.64,0,0,1,1.52,1.74,2,2,0,0,1-1.94,2.16h-3.5Zm1,3.2h2a.92.92,0,0,0,1.05-1v-.36a.92.92,0,0,0-1.05-1h-2Zm0,3.38h2.15a1,1,0,0,0,1.14-1.06V25A1,1,0,0,0,168.06,24h-2.15Z"/><path class="b" d="M171.8,27.38V19.9h4.66v.92h-3.62v2.32h3.35v.92h-3.35v2.4h3.62v.92Z"/><path class="b" d="M179.77,20.82h-2.32V19.9h5.67v.92h-2.31v6.56h-1Z"/><path class="b" d="M188.18,27.38l-.7-2.11h-2.92l-.71,2.11h-1l2.59-7.48h1.31l2.58,7.48ZM186,20.85h0l-1.18,3.5h2.41Z"/><path class="b" d="M190.32,28.83h-1a6.22,6.22,0,0,0,2-4.36V23.6a6.22,6.22,0,0,0-2-4.36h1A6.47,6.47,0,0,1,192.25,24,6.47,6.47,0,0,1,190.32,28.83Z"/></svg>