<?xml version="1.0" encoding="UTF-8" standalone="no"?>
<svg
   xmlns:dc="http://purl.org/dc/elements/1.1/"
   xmlns:cc="http://creativecommons.org/ns#"
   xmlns:rdf="http://www.w3.org/1999/02/22-rdf-syntax-ns#"
   xmlns:svg="http://www.w3.org/2000/svg"
   xmlns="http://www.w3.org/2000/svg"
   xmlns:sodipodi="http://sodipodi.sourceforge.net/DTD/sodipodi-0.dtd"
   xmlns:inkscape="http://www.inkscape.org/namespaces/inkscape"
   version="1.1"
   id="svg10"
   width="640"
   height="640"
   viewBox="0 0 640 640"
   sodipodi:docname="smallsvaicon.png.svg"
   inkscape:version="1.0beta2 (2b71d25, 2019-12-03)">
  <metadata
     id="metadata16">
    <rdf:RDF>
      <cc:Work
         rdf:about="">
        <dc:format>image/svg+xml</dc:format>
        <dc:type
           rdf:resource="http://purl.org/dc/dcmitype/StillImage" />
        <dc:title />
      </cc:Work>
    </rdf:RDF>
  </metadata>
  <defs
     id="defs14" />
  <sodipodi:namedview
     pagecolor="#ffffff"
     bordercolor="#666666"
     inkscape:document-rotation="0"
     borderopacity="1"
     objecttolerance="10"
     gridtolerance="10"
     guidetolerance="10"
     inkscape:pageopacity="0"
     inkscape:pageshadow="2"
     inkscape:window-width="1547"
     inkscape:window-height="1081"
     id="namedview12"
     showgrid="false"
     inkscape:zoom="3.515417"
     inkscape:cx="320"
     inkscape:cy="95.52339"
     inkscape:window-x="213"
     inkscape:window-y="50"
     inkscape:window-maximized="0"
     inkscape:current-layer="g18" />
  <g
     inkscape:groupmode="layer"
     inkscape:label="Image"
     id="g18">
    <path
       sodipodi:nodetypes="cccccccccccccccccccccccccccccccccccccccccccccccsccccc"
       style="fill:#d9022a;stroke:none"
       d="M 307.31881,3.644439 C 280.6628,8.025479 254.7268,9.125519 228.31879,16.644419 149.02478,39.221319 80.378267,96.98962 41.56876,169.25552 c -77.873415,145.006 -27.258606,331.078 112.75002,417.611 31.12001,19.234 66.13601,32.778 102.00002,40 35.45801,7.141 72.22701,8.466 108.00002,3.167 153.60803,-22.757 279.12805,-163.577 269.97205,-321.778 -7.777,-134.397 -94.78202,-255.057301 -226.97204,-292.388901 -23.76701,-6.7119 -47.46101,-10.21877 -72.00002,-11.63887 -9.192,-0.53198 -18.765,-0.9632343 -28,-0.58331 M 140.31878,132.47752 c 38.49401,-5.346 77.88101,29.745 86.63901,64.778 13.98701,55.948 -6.88,119.037 -31.861,169 -9.195,18.389 -19.96601,35.829 -29.55601,54 -1.85,3.506 -10.339,15.436 -4.139,18.278 6.282,2.879 22.81401,-8.793 27.91701,-12.278 25.06,-17.112 46.12601,-39.08 69.00001,-58.778 9.091,-7.828 17.789,-16.136 27.00001,-23.833 3.929,-3.283 11.216,-7.702 13.417,-12.389 1.307,-2.783 -1.022,-6.14 -1.334,-9 -0.661,-6.074 0.772,-12.407 5,-16.972 4.1,-4.427 10.819,-7.317 16.917,-6.611 4.206,0.486 9.256,4.348 12.972,1.444 9.36901,-7.32 17.14201,-19.01 25.11101,-27.861 23.177,-25.738 45.76901,-52.163 69.91701,-77 17.64801,-18.152 35.70401,-36.617 57.00001,-50.667 8.218,-5.421 19.77101,-12.261 30.00001,-12.166 25.285,0.234 10.23,41.741 5.611,53.833 -23.32801,61.078 -56.31701,133.033 -24.33301,197 8.90101,17.803 23.81301,32.724 42.72201,39.333 10.968,3.834 33.37001,2.22 35.77801,16.667 4.281,25.684 -31.99601,50.742 -52.77801,56.611 -45.48301,12.845 -97.05002,-18.796 -105.61102,-65.611 -10.193,-55.737 7.481,-114.185 32.38901,-164 9.36,-18.72 20.236,-36.5 30,-55 1.666,-3.156 11.67,-18.834 2.222,-18.472 -13.846,0.53 -30.815,15.727 -41.00001,23.861 -22.636,18.078 -43.081,38.514 -65.00001,57.389 -11.465,9.872 -28.859,20.36 -37.63901,32.611 -2.173,3.032 1.30101,8.174 1.55601,11.611 0.38,5.136 -2.01701,11.07 -5.33401,14.917 -4.717,5.47 -11.765,6.513 -18.583,6.055 -3.16,-0.212 -6.451,-2.951 -9.222,-0.778 -10.082,7.908 -18.289,20.286 -26.86101,29.806 -15.581,17.303 -31.496,34.35 -46.695,52 -20.94101,24.319 -45.56701,50.617 -73.22202,67.389 -9.257,5.614 -23.78,15.19 -35.00001,10 -7.274,-3.365 -8,-11.355 -8,-18.389 0,-16.368 7.934,-32.991 13.80601,-48 23.105,-59.062 49.56101,-127.741 15.944,-188 -9.412,-16.872 -25.03301,-30.325 -43.75001,-35.611 -11.317901,-3.196 -32.467805,-1.919 -31.972205,-18.389 1.008,-33.497 43.257205,-52.928 70.972215,-56.778 z"
       id="path30"
       inkscape:connector-curvature="0" />
  </g>
</svg>
