<?xml version="1.0" encoding="utf-8"?>
<!-- Generator: Adobe Illustrator 15.1.0, SVG Export Plug-In . SVG Version: 6.00 Build 0)  -->
<!DOCTYPE svg PUBLIC "-//W3C//DTD SVG 1.1//EN" "http://www.w3.org/Graphics/SVG/1.1/DTD/svg11.dtd">
<svg version="1.1" id="Layer_1" xmlns="http://www.w3.org/2000/svg" xmlns:xlink="http://www.w3.org/1999/xlink" x="0px" y="0px"
	 width="172px" height="35px" viewBox="0 0 172 35" enable-background="new 0 0 172 35" xml:space="preserve">
<g>
	<g>
		<path fill="#E31837" d="M172,17.5c0,9.625-9,17.5-20,17.5H20C9,35,0,27.125,0,17.5S9,0,20,0h132C163,0,172,7.875,172,17.5z"/>
	</g>
	<g>
		<path fill="#FFFFFF" d="M55.354,19.279c0,0.359-0.064,0.668-0.193,0.927c-0.129,0.258-0.309,0.468-0.54,0.63
			s-0.505,0.282-0.823,0.359c-0.318,0.078-0.666,0.117-1.044,0.117c-0.51,0-0.998-0.073-1.462-0.221
			c-0.465-0.146-0.862-0.328-1.192-0.544l0.846-1.368c0.114,0.078,0.247,0.154,0.4,0.229c0.153,0.075,0.312,0.143,0.477,0.202
			c0.165,0.061,0.332,0.108,0.5,0.145s0.324,0.055,0.468,0.055c0.312,0,0.526-0.031,0.644-0.091s0.175-0.165,0.175-0.315
			c0-0.06-0.016-0.113-0.049-0.162c-0.033-0.047-0.09-0.094-0.171-0.139s-0.19-0.09-0.329-0.135
			c-0.138-0.045-0.312-0.091-0.522-0.139c-0.378-0.09-0.708-0.186-0.99-0.288c-0.282-0.102-0.516-0.229-0.702-0.383
			c-0.186-0.153-0.326-0.337-0.418-0.553c-0.093-0.216-0.14-0.483-0.14-0.801c0-0.294,0.059-0.564,0.176-0.81
			c0.117-0.246,0.283-0.456,0.499-0.63c0.216-0.174,0.477-0.309,0.783-0.405c0.306-0.096,0.648-0.144,1.026-0.144
			c0.54,0,1.01,0.063,1.409,0.189s0.767,0.306,1.103,0.54l-0.846,1.368c-0.282-0.192-0.564-0.339-0.846-0.441
			c-0.282-0.102-0.585-0.153-0.909-0.153c-0.264,0-0.438,0.036-0.522,0.108c-0.084,0.072-0.126,0.165-0.126,0.279
			c0,0.06,0.017,0.112,0.049,0.157c0.033,0.045,0.088,0.087,0.167,0.126s0.183,0.078,0.315,0.117c0.132,0.039,0.3,0.083,0.504,0.13
			c0.396,0.096,0.738,0.201,1.026,0.315c0.288,0.114,0.525,0.249,0.711,0.405c0.186,0.156,0.324,0.342,0.414,0.558
			C55.31,18.73,55.354,18.985,55.354,19.279z"/>
		<path fill="#FFFFFF" d="M59.036,21.061c-0.156,0.078-0.333,0.14-0.531,0.186c-0.198,0.045-0.411,0.066-0.639,0.066
			c-0.432,0-0.749-0.115-0.949-0.346c-0.201-0.231-0.302-0.617-0.302-1.156v-2.053h-0.72v-1.269h0.72v-1.197l1.575-0.639v1.836
			h1.026v1.269H58.19v1.71c0,0.181,0.033,0.304,0.099,0.369c0.066,0.065,0.168,0.099,0.306,0.099c0.108,0,0.211-0.021,0.311-0.063
			s0.211-0.105,0.337-0.189L59.036,21.061z"/>
		<path fill="#FFFFFF" d="M62.734,21.214v-0.315c-0.144,0.114-0.307,0.212-0.49,0.293s-0.413,0.121-0.688,0.121
			c-0.522,0-0.908-0.166-1.157-0.499s-0.374-0.812-0.374-1.436v-2.889h1.629v2.682c0,0.306,0.048,0.512,0.144,0.616
			c0.096,0.105,0.228,0.158,0.396,0.158c0.167,0,0.3-0.051,0.396-0.153c0.096-0.103,0.144-0.304,0.144-0.603v-2.701h1.629v4.725
			H62.734z"/>
		<path fill="#FFFFFF" d="M67.829,21.217v-0.333c-0.156,0.125-0.318,0.228-0.486,0.309c-0.168,0.08-0.378,0.12-0.63,0.12
			c-0.222,0-0.427-0.045-0.616-0.135c-0.189-0.09-0.354-0.234-0.495-0.432c-0.141-0.198-0.252-0.451-0.333-0.761
			s-0.122-0.683-0.122-1.121c0-0.852,0.143-1.477,0.428-1.876c0.285-0.399,0.685-0.599,1.201-0.599c0.24,0,0.442,0.043,0.607,0.13
			s0.313,0.18,0.446,0.282V15.3l1.629-0.647v6.564H67.829z M67.829,17.939c-0.084-0.066-0.17-0.121-0.257-0.163
			s-0.193-0.063-0.319-0.063c-0.084,0-0.157,0.015-0.221,0.045c-0.063,0.03-0.117,0.086-0.162,0.168s-0.078,0.193-0.099,0.335
			s-0.032,0.325-0.032,0.549c0,0.236,0.011,0.432,0.032,0.585c0.021,0.154,0.054,0.275,0.099,0.362
			c0.045,0.088,0.1,0.148,0.167,0.182c0.066,0.033,0.141,0.051,0.225,0.051c0.12,0,0.223-0.021,0.31-0.064
			c0.087-0.041,0.172-0.096,0.257-0.162V17.939z"/>
		<path fill="#FFFFFF" d="M74.489,19c0,0.066,0,0.125,0,0.176s-0.003,0.098-0.009,0.139h-2.772c0.03,0.265,0.116,0.457,0.257,0.576
			c0.141,0.12,0.322,0.18,0.544,0.18c0.21,0,0.408-0.025,0.594-0.076s0.396-0.137,0.63-0.256l0.621,1.035
			c-0.294,0.174-0.595,0.307-0.904,0.4c-0.309,0.092-0.649,0.139-1.021,0.139c-0.354,0-0.669-0.06-0.945-0.18
			c-0.276-0.12-0.507-0.288-0.693-0.504s-0.327-0.476-0.423-0.778c-0.096-0.304-0.144-0.635-0.144-0.995
			c0-0.408,0.054-0.765,0.162-1.071c0.108-0.306,0.258-0.563,0.45-0.77c0.192-0.207,0.42-0.363,0.684-0.468s0.552-0.158,0.864-0.158
			c0.648,0,1.161,0.216,1.539,0.648C74.3,17.47,74.489,18.124,74.489,19z M72.846,17.767c-0.099-0.12-0.269-0.18-0.508-0.18
			c-0.366,0-0.576,0.24-0.63,0.72h1.35C73.016,18.067,72.945,17.887,72.846,17.767z"/>
		<path fill="#FFFFFF" d="M77.962,21.214v-2.682c0-0.306-0.048-0.511-0.145-0.616s-0.23-0.158-0.399-0.158
			c-0.175,0-0.312,0.051-0.408,0.153c-0.097,0.103-0.145,0.303-0.145,0.603v2.7h-1.611v-4.725h1.611l0.009,0.315
			c0.15-0.114,0.315-0.211,0.495-0.292c0.18-0.081,0.411-0.122,0.693-0.122c0.522,0,0.908,0.167,1.157,0.5s0.373,0.812,0.373,1.436
			v2.889H77.962z"/>
		<path fill="#FFFFFF" d="M83.372,21.061c-0.156,0.078-0.333,0.14-0.531,0.186c-0.198,0.045-0.411,0.066-0.639,0.066
			c-0.433,0-0.749-0.115-0.95-0.346c-0.201-0.231-0.301-0.617-0.301-1.156v-2.053H80.23v-1.269h0.721v-1.197l1.574-0.639v1.836
			h1.026v1.269h-1.026v1.71c0,0.181,0.033,0.304,0.1,0.369c0.065,0.065,0.168,0.099,0.306,0.099c0.108,0,0.212-0.021,0.311-0.063
			s0.212-0.105,0.338-0.189L83.372,21.061z"/>
		<path fill="#FFFFFF" d="M91.076,21.214h-1.766l-2.168-6.3h1.961l0.459,1.692c0.055,0.198,0.113,0.418,0.176,0.662
			c0.064,0.243,0.123,0.489,0.18,0.738c0.059,0.249,0.111,0.484,0.162,0.707s0.092,0.408,0.123,0.558
			c0.029-0.149,0.07-0.335,0.121-0.558s0.105-0.456,0.162-0.702s0.117-0.492,0.18-0.738s0.121-0.468,0.176-0.666l0.459-1.692h1.943
			L91.076,21.214z"/>
		<path fill="#FFFFFF" d="M95.629,15.346c0,0.252-0.086,0.449-0.26,0.59c-0.174,0.141-0.402,0.211-0.684,0.211
			c-0.271,0-0.492-0.071-0.666-0.211c-0.176-0.141-0.262-0.338-0.262-0.59c0-0.228,0.086-0.415,0.262-0.563
			c0.174-0.147,0.395-0.22,0.666-0.22c0.281,0,0.51,0.073,0.684,0.22C95.543,14.931,95.629,15.118,95.629,15.346z M93.875,21.214
			v-4.725h1.611v4.725H93.875z"/>
		<path fill="#FFFFFF" d="M99.498,18.271c-0.102-0.114-0.215-0.208-0.336-0.284c-0.123-0.075-0.264-0.112-0.42-0.112
			c-0.197,0-0.354,0.055-0.467,0.167c-0.115,0.111-0.172,0.311-0.172,0.598v2.574h-1.611v-4.725h1.611v0.342
			c0.139-0.138,0.289-0.246,0.451-0.324c0.16-0.078,0.348-0.117,0.557-0.117c0.174,0,0.322,0.018,0.441,0.054
			s0.229,0.084,0.324,0.144L99.498,18.271z"/>
		<path fill="#FFFFFF" d="M103.531,21.061c-0.156,0.078-0.332,0.14-0.531,0.186c-0.197,0.045-0.41,0.066-0.639,0.066
			c-0.432,0-0.748-0.115-0.949-0.346c-0.201-0.231-0.301-0.617-0.301-1.156v-2.053h-0.721v-1.269h0.721v-1.197l1.574-0.639v1.836
			h1.025v1.269h-1.025v1.71c0,0.181,0.033,0.304,0.1,0.369c0.064,0.065,0.168,0.099,0.305,0.099c0.109,0,0.213-0.021,0.311-0.063
			c0.1-0.042,0.213-0.105,0.338-0.189L103.531,21.061z"/>
		<path fill="#FFFFFF" d="M107.23,21.214v-0.315c-0.145,0.114-0.309,0.212-0.49,0.293c-0.184,0.081-0.414,0.121-0.689,0.121
			c-0.521,0-0.906-0.166-1.156-0.499c-0.248-0.333-0.373-0.812-0.373-1.436v-2.889h1.629v2.682c0,0.306,0.047,0.512,0.145,0.616
			c0.096,0.105,0.227,0.158,0.395,0.158s0.301-0.051,0.396-0.153s0.145-0.304,0.145-0.603v-2.701h1.629v4.725H107.23z"/>
		<path fill="#FFFFFF" d="M112.334,21.214v-0.315c-0.156,0.121-0.334,0.22-0.531,0.297c-0.199,0.078-0.406,0.117-0.621,0.117
			c-0.463,0-0.834-0.138-1.111-0.414c-0.279-0.275-0.42-0.681-0.42-1.215c0-0.252,0.043-0.474,0.127-0.666
			c0.084-0.192,0.201-0.352,0.352-0.481c0.148-0.129,0.328-0.226,0.535-0.292c0.207-0.066,0.436-0.099,0.688-0.099
			c0.217,0,0.4,0.018,0.555,0.054c0.152,0.036,0.295,0.084,0.428,0.144v-0.234c0-0.21-0.057-0.355-0.168-0.437
			s-0.277-0.122-0.498-0.122c-0.246,0-0.471,0.026-0.672,0.077s-0.416,0.14-0.643,0.266l-0.424-1.071
			c0.289-0.138,0.596-0.244,0.924-0.319c0.326-0.075,0.697-0.113,1.111-0.113c0.66,0,1.141,0.156,1.443,0.468
			s0.455,0.741,0.455,1.287v3.069H112.334z M112.334,19.288c-0.092-0.042-0.189-0.075-0.299-0.099
			c-0.107-0.024-0.238-0.037-0.395-0.037c-0.336,0-0.504,0.168-0.504,0.504c0,0.15,0.039,0.273,0.121,0.369
			c0.08,0.097,0.209,0.145,0.383,0.145c0.137,0,0.268-0.022,0.391-0.067c0.123-0.046,0.225-0.101,0.303-0.167V19.288z"/>
		<path fill="#FFFFFF" d="M114.826,21.214v-5.913l1.611-0.648v6.561H114.826z"/>
		<path fill="#FFFFFF" d="M124.564,21.214l-0.342-1.106h-1.891l-0.342,1.106h-1.873l2.287-6.3h1.764l2.285,6.3H124.564z
			 M123.682,18.307c-0.053-0.204-0.102-0.381-0.145-0.531c-0.041-0.15-0.078-0.285-0.111-0.405c-0.033-0.12-0.063-0.229-0.086-0.329
			s-0.045-0.203-0.063-0.311c-0.018,0.108-0.039,0.213-0.063,0.315c-0.025,0.102-0.053,0.213-0.086,0.333s-0.07,0.255-0.113,0.405
			c-0.041,0.15-0.09,0.324-0.145,0.522l-0.115,0.414h1.043L123.682,18.307z"/>
		<path fill="#FFFFFF" d="M130.971,19.72c0,0.546-0.174,0.948-0.521,1.206s-0.824,0.387-1.43,0.387c-0.35,0-0.688-0.034-1.018-0.104
			c-0.33-0.068-0.648-0.163-0.955-0.283l0.379-1.225c0.287,0.127,0.578,0.227,0.873,0.303c0.293,0.074,0.545,0.111,0.756,0.111
			c0.156,0,0.268-0.018,0.332-0.053c0.066-0.037,0.1-0.091,0.1-0.162c0-0.078-0.023-0.137-0.072-0.176
			c-0.047-0.039-0.15-0.08-0.305-0.121c-0.367-0.097-0.674-0.191-0.924-0.284c-0.248-0.093-0.449-0.2-0.602-0.324
			c-0.154-0.123-0.266-0.269-0.334-0.437s-0.104-0.375-0.104-0.621c0-0.486,0.158-0.866,0.477-1.139s0.801-0.41,1.449-0.41
			c0.18,0,0.346,0.008,0.496,0.023c0.148,0.015,0.297,0.036,0.439,0.063c0.145,0.027,0.289,0.063,0.434,0.108
			c0.143,0.045,0.293,0.094,0.449,0.148l-0.359,1.251c-0.313-0.138-0.588-0.239-0.828-0.302s-0.465-0.094-0.676-0.094
			c-0.156,0-0.26,0.017-0.314,0.049c-0.055,0.033-0.082,0.085-0.082,0.158c0,0.036,0.006,0.067,0.014,0.094
			c0.01,0.027,0.031,0.053,0.064,0.077c0.031,0.024,0.08,0.048,0.143,0.072c0.064,0.024,0.146,0.051,0.248,0.081
			c0.33,0.09,0.613,0.18,0.85,0.27c0.238,0.09,0.434,0.195,0.586,0.315c0.152,0.12,0.264,0.261,0.332,0.423
			C130.938,19.288,130.971,19.486,130.971,19.72z"/>
		<path fill="#FFFFFF" d="M135.525,19.72c0,0.546-0.174,0.948-0.521,1.206s-0.826,0.387-1.432,0.387
			c-0.348,0-0.688-0.034-1.018-0.104c-0.33-0.068-0.646-0.163-0.953-0.283l0.377-1.225c0.289,0.127,0.58,0.227,0.873,0.303
			c0.295,0.074,0.547,0.111,0.756,0.111c0.156,0,0.268-0.018,0.334-0.053c0.066-0.037,0.1-0.091,0.1-0.162
			c0-0.078-0.025-0.137-0.072-0.176c-0.049-0.039-0.15-0.08-0.307-0.121c-0.365-0.097-0.674-0.191-0.922-0.284
			c-0.25-0.093-0.451-0.2-0.604-0.324c-0.152-0.123-0.264-0.269-0.332-0.437c-0.07-0.168-0.104-0.375-0.104-0.621
			c0-0.486,0.158-0.866,0.477-1.139s0.801-0.41,1.449-0.41c0.18,0,0.344,0.008,0.494,0.023c0.15,0.015,0.297,0.036,0.441,0.063
			c0.145,0.027,0.287,0.063,0.432,0.108s0.295,0.094,0.451,0.148l-0.361,1.251c-0.313-0.138-0.588-0.239-0.828-0.302
			s-0.465-0.094-0.674-0.094c-0.156,0-0.262,0.017-0.316,0.049c-0.053,0.033-0.08,0.085-0.08,0.158c0,0.036,0.004,0.067,0.014,0.094
			c0.008,0.027,0.029,0.053,0.063,0.077s0.082,0.048,0.145,0.072s0.145,0.051,0.248,0.081c0.328,0.09,0.613,0.18,0.85,0.27
			c0.236,0.09,0.432,0.195,0.584,0.315c0.154,0.12,0.266,0.261,0.334,0.423S135.525,19.486,135.525,19.72z"/>
		<path fill="#FFFFFF" d="M138.172,15.346c0,0.252-0.088,0.449-0.262,0.59c-0.174,0.141-0.402,0.211-0.684,0.211
			c-0.27,0-0.492-0.071-0.666-0.211c-0.174-0.141-0.262-0.338-0.262-0.59c0-0.228,0.088-0.415,0.262-0.563
			c0.174-0.147,0.396-0.22,0.666-0.22c0.281,0,0.51,0.073,0.684,0.22C138.084,14.931,138.172,15.118,138.172,15.346z
			 M136.416,21.214v-4.725h1.611v4.725H136.416z"/>
		<path fill="#FFFFFF" d="M142.842,19.72c0,0.546-0.174,0.948-0.521,1.206s-0.824,0.387-1.43,0.387c-0.35,0-0.688-0.034-1.018-0.104
			c-0.33-0.068-0.648-0.163-0.955-0.283l0.379-1.225c0.287,0.127,0.578,0.227,0.873,0.303c0.293,0.074,0.545,0.111,0.756,0.111
			c0.156,0,0.268-0.018,0.332-0.053c0.066-0.037,0.1-0.091,0.1-0.162c0-0.078-0.023-0.137-0.072-0.176
			c-0.047-0.039-0.15-0.08-0.305-0.121c-0.367-0.097-0.674-0.191-0.924-0.284c-0.248-0.093-0.449-0.2-0.602-0.324
			c-0.154-0.123-0.266-0.269-0.334-0.437s-0.104-0.375-0.104-0.621c0-0.486,0.158-0.866,0.477-1.139s0.801-0.41,1.449-0.41
			c0.18,0,0.346,0.008,0.496,0.023c0.148,0.015,0.297,0.036,0.439,0.063c0.145,0.027,0.289,0.063,0.434,0.108
			c0.143,0.045,0.293,0.094,0.449,0.148l-0.359,1.251c-0.313-0.138-0.588-0.239-0.828-0.302s-0.465-0.094-0.676-0.094
			c-0.156,0-0.26,0.017-0.314,0.049c-0.055,0.033-0.082,0.085-0.082,0.158c0,0.036,0.006,0.067,0.014,0.094
			c0.01,0.027,0.031,0.053,0.064,0.077c0.031,0.024,0.08,0.048,0.143,0.072c0.064,0.024,0.146,0.051,0.248,0.081
			c0.33,0.09,0.613,0.18,0.85,0.27c0.238,0.09,0.434,0.195,0.586,0.315c0.152,0.12,0.264,0.261,0.332,0.423
			C142.809,19.288,142.842,19.486,142.842,19.72z"/>
		<path fill="#FFFFFF" d="M146.496,21.061c-0.156,0.078-0.332,0.14-0.531,0.186c-0.197,0.045-0.41,0.066-0.639,0.066
			c-0.432,0-0.748-0.115-0.949-0.346c-0.201-0.231-0.301-0.617-0.301-1.156v-2.053h-0.721v-1.269h0.721v-1.197l1.574-0.639v1.836
			h1.025v1.269h-1.025v1.71c0,0.181,0.033,0.304,0.1,0.369c0.064,0.065,0.168,0.099,0.305,0.099c0.109,0,0.213-0.021,0.311-0.063
			c0.1-0.042,0.213-0.105,0.338-0.189L146.496,21.061z"/>
		<path fill="#FFFFFF" d="M149.988,21.214v-0.315c-0.156,0.121-0.332,0.22-0.531,0.297c-0.197,0.078-0.404,0.117-0.621,0.117
			c-0.461,0-0.832-0.138-1.111-0.414c-0.279-0.275-0.418-0.681-0.418-1.215c0-0.252,0.041-0.474,0.125-0.666
			c0.084-0.192,0.201-0.352,0.352-0.481c0.15-0.129,0.328-0.226,0.535-0.292c0.207-0.066,0.438-0.099,0.689-0.099
			c0.215,0,0.4,0.018,0.553,0.054c0.152,0.036,0.295,0.084,0.428,0.144v-0.234c0-0.21-0.055-0.355-0.166-0.437
			s-0.277-0.122-0.5-0.122c-0.246,0-0.469,0.026-0.67,0.077s-0.416,0.14-0.645,0.266l-0.422-1.071
			c0.287-0.138,0.596-0.244,0.922-0.319s0.697-0.113,1.111-0.113c0.66,0,1.143,0.156,1.445,0.468s0.453,0.741,0.453,1.287v3.069
			H149.988z M149.988,19.288c-0.09-0.042-0.189-0.075-0.297-0.099c-0.107-0.024-0.24-0.037-0.396-0.037
			c-0.336,0-0.504,0.168-0.504,0.504c0,0.15,0.041,0.273,0.121,0.369c0.082,0.097,0.209,0.145,0.383,0.145
			c0.139,0,0.27-0.022,0.393-0.067c0.123-0.046,0.223-0.101,0.301-0.167V19.288z"/>
		<path fill="#FFFFFF" d="M155.146,21.214v-2.682c0-0.306-0.049-0.511-0.146-0.616c-0.096-0.105-0.229-0.158-0.398-0.158
			c-0.176,0-0.313,0.051-0.408,0.153c-0.098,0.103-0.145,0.303-0.145,0.603v2.7h-1.611v-4.725h1.611l0.008,0.315
			c0.15-0.114,0.316-0.211,0.496-0.292s0.41-0.122,0.691-0.122c0.523,0,0.908,0.167,1.158,0.5c0.248,0.333,0.373,0.812,0.373,1.436
			v2.889H155.146z"/>
		<path fill="#FFFFFF" d="M160.555,21.061c-0.156,0.078-0.332,0.14-0.531,0.186c-0.197,0.045-0.41,0.066-0.639,0.066
			c-0.432,0-0.748-0.115-0.949-0.346c-0.201-0.231-0.301-0.617-0.301-1.156v-2.053h-0.721v-1.269h0.721v-1.197l1.574-0.639v1.836
			h1.025v1.269h-1.025v1.71c0,0.181,0.033,0.304,0.1,0.369c0.064,0.065,0.168,0.099,0.305,0.099c0.109,0,0.213-0.021,0.311-0.063
			c0.1-0.042,0.213-0.105,0.338-0.189L160.555,21.061z"/>
	</g>
	<path fill="#FFFFFF" d="M27.816,19.2c0.09-0.63,0.43-1.01,0.27-1.88c2.98-2.31,5.22-5.36,8.891-6.99
		c-1.281,3.57-6.511,11.229-3.771,16.4c1.71,3.229,9.29,4.1,9.43-1.61c-3.351-0.25-5.399-2.69-5.659-5.92
		c-0.351-4.41,3.639-9.19,2.43-12.63c-5.67,1.6-7.78,6.76-11.59,10.21c-0.721,0.42-1.431-0.21-2.15,0.54
		c-0.37,0.35-0.27,1.17-0.27,1.88c-2.94,2-4.9,4.97-8.351,6.46c0.989-3.53,5.36-8.83,4.31-14.52c-0.85-4.61-8.689-6.82-9.97-0.81
		c0.85,1.26,2.27,0.94,3.23,1.61c3.57,2.5,2.42,7.13,1.08,11.03c-0.81,2.38-2.28,4.7-1.08,6.45c5.38-1.54,7.419-6.4,11.05-9.68
		C26.195,19.37,27.206,19.48,27.816,19.2z"/>
</g>
</svg>
