<?xml version="1.0" encoding="UTF-8" standalone="no"?>
<svg
   version="1.1"
   id="Layer_1"
   x="0px"
   y="0px"
   width="55.961327"
   viewBox="0 0 279.80663 373.44143"
   enable-background="new 0 0 512 512"
   xml:space="preserve"
   sodipodi:docname="questionaire_2_adobe_express.svg"
   height="74.688286"
   inkscape:version="1.2.2 (b0a84865, 2022-12-01)"
   xmlns:inkscape="http://www.inkscape.org/namespaces/inkscape"
   xmlns:sodipodi="http://sodipodi.sourceforge.net/DTD/sodipodi-0.dtd"
   xmlns="http://www.w3.org/2000/svg"
   xmlns:svg="http://www.w3.org/2000/svg"><defs
   id="defs2686" /><sodipodi:namedview
   id="namedview2684"
   pagecolor="#ffffff"
   bordercolor="#000000"
   borderopacity="0.25"
   inkscape:showpageshadow="2"
   inkscape:pageopacity="0.0"
   inkscape:pagecheckerboard="true"
   inkscape:deskcolor="#d1d1d1"
   showgrid="false"
   showborder="false"
   inkscape:zoom="0.4609375"
   inkscape:cx="142.10169"
   inkscape:cy="193.08475"
   inkscape:window-width="1292"
   inkscape:window-height="708"
   inkscape:window-x="0"
   inkscape:window-y="25"
   inkscape:window-maximized="0"
   inkscape:current-layer="Layer_1" />

<path
   fill="#040404"
   opacity="1"
   stroke="none"
   d="m 216.98064,373.25969 c -67.15406,0.0108 -133.808032,0.0245 -200.462012,0.0322 -10.4434699,10e-4 -16.47052986,-5.75558 -16.47241986,-15.80426 -0.0212,-112.98114 -0.029,-225.96228 -0.0448,-338.943419 -4.3999467e-4,-3.169899 -0.0826,-6.349754 1.07843996,-9.3764799 C 3.2866581,3.4148241 8.6025481,-0.00525793 15.184118,6.0676941e-6 90.836848,0.06048607 166.48959,0.11687307 242.1423,0.16655607 c 6.83194,0.0045 13.6669,-0.183914 20.49517,-0.03738 10.52976,0.225937 16.69986,6.44287903 16.70466,16.98429893 0.0287,62.986021 -0.0416,125.972115 0.0374,188.958025 0.004,3.0762 -0.69989,4.01798 -3.82257,3.86429 -5.15177,-0.25354 -10.33655,-0.1908 -15.48993,0.0758 -3.10043,0.16046 -3.80658,-0.80835 -3.80093,-3.89459 0.0634,-34.66007 -0.0917,-69.32044 -0.10444,-103.98076 -0.009,-24.495204 0.0283,-48.991174 0.25708,-73.484824 0.036,-3.851542 -0.97061,-4.895861 -4.88916,-4.891718 -74.82064,0.07911 -149.64151,0.02991 -224.462002,-0.139748 -3.38959,-0.0077 -3.64112,1.17508 -3.63759,3.958276 0.0669,52.98949 0.0646,105.979154 0.0313,158.968734 -0.0336,53.488 -0.0854,106.97607 -0.25785,160.46374 -0.01,3.11307 0.70897,3.86719 3.81873,3.86298 75.153722,-0.10156 150.307622,-0.11197 225.461332,-0.0192 3.21335,0.004 3.80954,-0.99566 3.80243,-3.94198 -0.0797,-32.99271 0.0328,-65.986 -0.10547,-98.97831 -0.0137,-3.27703 0.63098,-4.3384 3.98099,-4.15576 5.15051,0.28083 10.33908,0.28144 15.48935,-0.002 3.26532,-0.17948 4.18897,0.69946 4.15494,4.0802 -0.26847,26.6586 -0.31671,53.31939 -0.43231,79.97952 -0.0412,9.49615 0.0268,18.99429 -0.15064,28.48788 -0.19668,10.52137 -6.21432,16.85889 -16.7558,17.02311 -14.99133,0.23361 -29.99044,-0.0337 -45.48629,-0.0879 z"
   id="path2673" />
<path
   fill="#020202"
   opacity="1"
   stroke="none"
   d="m 205.37501,122.4765 c -1.04541,18.91676 -10.42517,33.05543 -23.40057,45.28979 -4.23834,3.99628 -8.4696,8.02965 -12.99747,11.6824 -6.96719,5.62066 -11.75735,12.48031 -14.14334,21.17183 -1.48364,5.40451 -4.60736,9.45285 -10.72159,10.52738 -10.59909,1.86279 -19.39811,-6.00171 -18.17329,-16.65582 1.30214,-11.32694 6.52783,-20.80622 14.22606,-29.05228 5.55594,-5.95133 11.56009,-11.48369 15.91327,-18.51642 5.55337,-8.97165 8.71426,-18.62198 9.23129,-29.13614 0.73862,-15.0197 -7.11139,-26.876074 -19.65305,-29.775664 -13.62788,-3.1507 -26.68367,3.72384 -32.97998,17.237074 -3.63839,7.80881 -5.15777,16.06334 -6.05664,24.56494 -1.0419,9.85456 -11.359782,15.05564 -20.093622,10.47518 -3.70002,-1.94046 -5.30703,-5.39626 -6.63323,-9.0011 -13.10754,-35.629184 10.57035,-73.795904 48.306962,-77.273824 30.39932,-2.8017 53.90729,8.81598 69.40769,35.42606 5.82483,9.99969 8.03622,21.054714 7.76751,33.036594 z"
   id="path2675" />
<path
   fill="#060606"
   opacity="1"
   stroke="none"
   d="m 110.02296,331.7064 c -0.0113,-3.81384 0.24556,-7.1727 -0.11003,-10.46539 -0.39288,-3.63785 0.99581,-4.34644 4.39551,-4.3357 35.46135,0.11225 70.92323,0.0564 106.38496,0.0473 3.99531,-10e-4 7.99592,0.1232 11.98395,-0.0473 2.48435,-0.1062 3.61978,0.48096 3.48975,3.25867 -0.21002,4.48477 -0.10489,8.98804 -0.0204,13.48139 0.0435,2.31463 -0.32797,3.40646 -3.23346,3.39132 -39.62222,-0.20663 -79.24551,-0.30777 -118.86802,-0.21564 -3.91956,0.009 -4.47448,-1.52899 -4.02224,-5.11465 z"
   id="path2677" />
<path
   fill="#030303"
   opacity="1"
   stroke="none"
   d="m 128.62393,227.30873 c 18.50346,-4.28266 33.5074,5.06002 36.00856,22.02218 2.01834,13.68753 -7.80972,26.57459 -22.40677,29.38095 -15.03898,2.89133 -28.36773,-5.51352 -31.91829,-20.12707 -3.12782,-12.87357 5.1039,-27.14313 18.3165,-31.27606 z"
   id="path2679" />
<path
   fill="#070808"
   opacity="1"
   stroke="none"
   d="m 55.984508,336.74412 c -2.16382,0.002 -3.82878,0.006 -5.49376,0.007 -10.21585,0.005 -10.21585,0.005 -10.28372,-10.51272 -0.0596,-9.22736 -0.0597,-9.25977 9.05479,-9.29065 12.81981,-0.0434 25.64148,0.0769 38.45853,-0.12155 3.27339,-0.0507 4.4032,0.83447 4.15144,4.1477 -0.28935,3.80817 -0.28103,7.66654 -0.0356,11.47952 0.21827,3.39154 -0.76239,4.59977 -4.38722,4.49692 -10.3155,-0.29266 -20.64288,-0.16687 -31.46443,-0.20587 z"
   id="path2681" />
</svg>
