<?xml version="1.0" encoding="UTF-8" standalone="no"?>
<svg
   version="1.1"
   id="Layer_1"
   x="0px"
   y="0px"
   width="66.716339"
   viewBox="113 76 239.72727 320.75203"
   enable-background="new 0 0 512 512"
   xml:space="preserve"
   sodipodi:docname="journal_pen_inks_mod.svg"
   height="89.26561"
   inkscape:version="1.2.2 (b0a84865, 2022-12-01)"
   xmlns:inkscape="http://www.inkscape.org/namespaces/inkscape"
   xmlns:sodipodi="http://sodipodi.sourceforge.net/DTD/sodipodi-0.dtd"
   xmlns="http://www.w3.org/2000/svg"
   xmlns:svg="http://www.w3.org/2000/svg"><defs
   id="defs167" /><sodipodi:namedview
   id="namedview165"
   pagecolor="#ffffff"
   bordercolor="#000000"
   borderopacity="0.25"
   inkscape:showpageshadow="2"
   inkscape:pageopacity="0.0"
   inkscape:pagecheckerboard="true"
   inkscape:deskcolor="#d1d1d1"
   showgrid="false"
   showborder="false"
   inkscape:zoom="1.8220149"
   inkscape:cx="17.562974"
   inkscape:cy="97.41962"
   inkscape:window-width="1309"
   inkscape:window-height="713"
   inkscape:window-x="101"
   inkscape:window-y="166"
   inkscape:window-maximized="0"
   inkscape:current-layer="Layer_1" />

<path
   id="path148"
   d="m 316.07481,76 c -54.98221,0.0048 -109.96521,0.01784 -164.94745,0.04492 -3.99855,0.002 -7.99309,0.1823 -11.8788,1.274041 -16.54037,4.64727 -26.2755,18.99625 -26.2485,37.935379 0.12472,87.471 0.15947,174.94047 0.17967,262.41157 0.003,13.09105 5.43685,18.97561 18.6206,18.98811 72.31031,0.0686 144.62378,0.008 216.93403,0.098 2.98065,0.004 3.5479,-0.93614 3.5322,-3.6547 -0.079,-13.66107 0.0606,-27.32389 0.0735,-40.98573 0.0492,-51.98163 0.0862,-103.96177 0.0694,-155.94341 -3.6e-4,-1.11952 0.99478,-2.5366 -0.53494,-3.54036 -19.58596,24.59343 -41.74536,46.76708 -62.78734,69.94157 -4.43976,4.88971 -8.79347,9.71427 -12.69549,15.14149 -5.14898,7.16154 -8.53316,16.61643 -18.7676,18.92277 -0.28723,0.0647 -0.59275,0.35095 -0.75544,0.6166 -3.09208,5.04923 -8.22857,8.26525 -11.7318,12.88333 -9.81355,12.93663 -22.61387,20.37945 -38.59282,23.40234 -11.07473,2.0951 -21.90106,5.57596 -32.76571,8.68961 -8.83568,2.53218 -19.16762,-1.49082 -16.21544,-14.34521 3.79746,-16.53493 6.90815,-33.22779 10.41692,-49.83052 0.47562,-2.25044 1.11841,-4.68345 2.41741,-6.50904 8.87537,-12.47313 15.65874,-26.32735 25.5584,-38.53973 5.81638,-7.14024 9.41653,-15.87609 18.44501,-19.51488 0.69911,-0.28177 1.1968,-1.14117 1.71097,-1.79264 7.42593,-9.40875 14.72658,-18.91935 22.27938,-28.2249 12.369,-15.2394 23.07229,-31.87031 37.26978,-45.57963 17.49346,-16.89191 35.22818,-33.53646 52.87678,-50.267439 3.92845,-3.724224 3.56001,-7.103769 -1.26588,-9.616558 -3.49309,-1.818815 -7.35204,-2.005317 -11.19686,-2.004981 z m -161.10899,29.84604 c 1.97353,-0.0352 4.09027,0.24918 6.35387,0.85753 3.50917,3.77876 7.68645,3.56656 11.98905,3.54036 17.63529,-0.10745 35.27389,0.0247 52.90944,-0.0613 3.98577,-0.0194 6.86399,1.26475 7.98318,5.235 1.16229,4.12318 -2.07435,7.24782 -7.59116,7.2604 -17.96878,0.0409 -35.93971,0.13045 -53.90581,-0.0939 -3.94377,-0.0492 -5.52156,0.54109 -5.17375,4.98183 0.48133,6.14555 -3.5895,12.17348 -8.85704,14.28395 -5.90256,2.36493 -10.41069,-0.76612 -14.36154,-4.38155 -6.59903,-6.0388 -7.67502,-15.06353 -3.21369,-22.77757 3.32981,-5.7575 7.94685,-8.73907 13.86745,-8.84478 z m 14.88014,35.46488 c 1.13544,-0.0156 2.30581,0.0227 3.49953,0.0449 17.92445,0.0134 35.41197,-0.009 52.8972,0.0449 5.35233,0.0164 7.51348,1.93243 7.59932,6.39471 0.0832,4.32715 -2.27805,6.579 -7.4564,6.61929 -13.48814,0.10493 -26.97425,0.0667 -40.46305,0.0898 -4.99592,0.009 -9.99497,0.14322 -14.98631,0 -2.46295,-0.0707 -3.58091,0.36321 -3.34028,3.23002 0.33325,3.97034 0.21238,7.99191 0.10209,11.98497 -0.0585,2.11672 0.48269,2.68745 2.76859,2.65426 18.14605,-0.26353 36.29752,-0.29124 54.44483,-0.48594 3.9289,-0.0422 7.00868,0.9085 7.72183,5.26767 0.62968,3.84918 -0.7236,6.61706 -4.90016,7.20732 -2.13225,0.30133 -4.31282,0.34654 -6.47229,0.35117 -17.31914,0.037 -34.6393,-0.011 -51.958,0.0858 -3.37703,0.0189 -6.35458,-0.33577 -7.90559,-3.80171 -0.65571,-1.46529 -1.58765,-1.14266 -2.84209,-0.93103 -9.17982,1.54844 -14.079,-0.60342 -18.01624,-7.74633 -3.79016,-6.87607 -2.83075,-15.37886 2.78492,-21.24627 4.14014,-4.32572 8.90931,-7.6236 15.46408,-5.92919 0.78674,0.20339 1.52702,0.5783 2.22141,-0.294 2.35308,-2.95592 5.43029,-3.4935 8.83661,-3.54037 z" />
<path
   fill="#010101"
   opacity="1"
   stroke="none"
   d="m 260.03595,172.0602 c 14.11023,-20.2789 32.04532,-36.49851 49.55365,-53.12047 6.6445,-6.30811 13.18936,-12.72116 19.83121,-19.032074 2.3977,-2.2782 4.94638,-4.39746 7.75851,-6.88306 2.45707,6.91354 7.67368,10.808984 12.95136,14.544024 7.19491,5.09191 14.49261,10.04515 21.85922,14.88599 7.04105,4.6269 7.81009,7.4479 3.38458,14.72142 -19.75766,32.4728 -40.3901,64.25748 -67.74032,91.13733 -9.4917,9.32852 -18.0856,19.5719 -27.0611,29.42343 -2.48471,2.72724 -4.37131,3.73569 -8.02859,0.76743 -15.11927,-12.27078 -30.58617,-24.11577 -46.01944,-35.99493 -2.99277,-2.30358 -3.31226,-3.90255 -0.76212,-7.0519 11.52409,-14.23213 22.72981,-28.72206 34.27304,-43.39719 z"
   id="path150" />
<path
   fill="#030303"
   opacity="1"
   stroke="none"
   d="m 382.77915,342.7183 c -0.008,19.99704 -0.0227,39.49402 -0.024,58.99103 -0.001,15.91592 -8.85678,24.97299 -25.00952,25.01352 -39.99366,0.10034 -79.98777,0.0214 -119.98169,0.0129 -31.99527,-0.007 -63.9906,0.0211 -95.98577,-0.0411 -14.12658,-0.0275 -24.17545,-7.24753 -28.28148,-20.11374 -0.40032,-1.25442 -0.67234,-2.57223 -0.8049,-3.8808 -0.0741,-0.7312 -0.2397,-1.84573 0.8645,-2.00699 0.51092,-0.0746 1.28227,0.34308 1.65117,0.77851 6.58211,7.76886 15.46062,8.02774 24.66127,8.0108 67.48897,-0.12399 134.97818,-0.10324 202.46729,-0.15713 2.99438,-0.002 6.00137,-0.15918 8.98038,-0.4618 8.81964,-0.8959 13.47503,-5.86898 13.49014,-14.76657 0.0684,-40.32434 0.0334,-80.64883 0.0529,-120.97326 0.0157,-32.49353 0.0539,-64.98708 0.0973,-97.48061 10e-4,-0.97682 -0.15357,-2.16014 0.31448,-2.89844 5.20993,-8.21773 10.52847,-16.36663 15.81769,-24.53411 0.5632,0.0969 1.12637,0.19385 1.68954,0.29077 0,64.57232 0,129.14463 7.7e-4,194.21699 z"
   id="path152" />
<path
   fill="#020202"
   opacity="1"
   stroke="none"
   d="m 383.63449,114.18148 c -4.43847,0.0119 -7.69485,-1.90192 -10.82406,-4.19857 -6.02793,-4.4242 -12.07984,-8.81598 -18.14075,-13.194994 -9.0459,-6.53565 -11.15851,-14.91321 -5.67182,-24.678739 5.98661,-10.655304 15.38441,-15.832528 27.59342,-15.435509 12.63373,0.410835 21.90897,6.666672 27.25085,17.879776 5.15387,10.818392 3.50687,21.481422 -3.599,31.034256 -3.93661,5.29222 -9.49096,8.21769 -16.60864,8.59378 z"
   id="path154" />
<path
   fill="#050606"
   opacity="1"
   stroke="none"
   d="m 170.40247,319.32057 c 1.88318,-14.44993 6.91067,-27.84217 8.33685,-41.95231 0.092,-0.90976 0.66188,-1.86978 1.25096,-2.61569 6.68948,-8.47021 12.14199,-17.75979 18.08667,-27.14868 3.42809,2.86685 6.76927,5.80505 10.27689,8.52899 1.57336,1.22183 1.04716,1.8378 0.0302,3.0643 -1.90541,2.29804 -3.51773,4.83853 -5.26093,7.27176 -12.24571,17.0932 -15.15385,24.06378 -18.78733,45.29309 3.05481,0.19345 5.76686,-1.04324 8.56205,-1.68417 7.61284,-1.74558 15.18761,-3.68106 22.84857,-5.17709 2.0613,-0.40253 3.25425,-1.45777 4.4753,-2.76618 5.79456,-6.20908 11.74242,-12.29056 17.24194,-18.75253 2.50338,-2.94144 4.20813,-2.866 6.70871,-0.35022 2.4581,2.47302 5.1639,4.69983 7.83469,7.10095 -6.28235,4.35291 -11.38612,10.02872 -16.24405,15.76099 -6.96034,8.21304 -15.27862,13.36386 -25.79581,15.68728 -11.03021,2.43671 -21.8833,5.67124 -32.82492,8.51432 -8.41447,2.1864 -9.09268,1.53692 -7.50047,-6.93518 0.21466,-1.14222 0.43895,-2.28263 0.7607,-3.83963 z"
   id="path156" />
<path
   fill="#050506"
   opacity="1"
   stroke="none"
   d="m 215.98227,228.45892 c 17.03325,13.29316 33.74532,26.42112 50.58801,39.37931 2.16105,1.66266 2.27829,2.74186 0.97516,4.97739 -5.76135,9.88358 -6.12527,10.09973 -14.77753,2.90903 -13.53938,-11.25229 -27.58387,-21.84818 -41.57342,-32.52091 -6.10391,-4.6567 -6.04071,-4.74621 -1.7842,-10.87133 1.04189,-1.49929 2.15839,-2.94845 3.16034,-4.47338 1.34978,-2.05437 2.13938,-0.14633 3.41164,0.59989 z"
   id="path158" />


</svg>
