<?xml version="1.0" encoding="UTF-8" standalone="no"?>
<svg
   version="1.1"
   id="Layer_1"
   x="0px"
   y="0px"
   width="75.107834"
   viewBox="0 0 375.53917 421.78646"
   enable-background="new 0 0 512 512"
   xml:space="preserve"
   sodipodi:docname="certificate 1_adobe_express.svg"
   height="84.357292"
   inkscape:version="1.2.2 (b0a84865, 2022-12-01)"
   xmlns:inkscape="http://www.inkscape.org/namespaces/inkscape"
   xmlns:sodipodi="http://sodipodi.sourceforge.net/DTD/sodipodi-0.dtd"
   xmlns="http://www.w3.org/2000/svg"
   xmlns:svg="http://www.w3.org/2000/svg"><defs
   id="defs23" /><sodipodi:namedview
   id="namedview21"
   pagecolor="#ffffff"
   bordercolor="#000000"
   borderopacity="0.25"
   inkscape:showpageshadow="2"
   inkscape:pageopacity="0.0"
   inkscape:pagecheckerboard="true"
   inkscape:deskcolor="#d1d1d1"
   showgrid="false"
   showborder="false"
   inkscape:zoom="0.4609375"
   inkscape:cx="138.84746"
   inkscape:cy="202.84746"
   inkscape:window-width="1279"
   inkscape:window-height="677"
   inkscape:window-x="0"
   inkscape:window-y="25"
   inkscape:window-maximized="0"
   inkscape:current-layer="Layer_1" />

<path
   fill="#030303"
   opacity="1"
   stroke="none"
   d="m 337.09625,216.41867 c -10e-4,37.96124 -10e-4,75.42246 -10e-4,113.31082 7.08435,0 14.19974,-0.0397 21.31451,0.009 11.81793,0.0808 17.02066,5.35566 17.01541,17.14182 -0.009,19.16565 0.0144,38.33133 -0.0192,57.49695 -0.0226,12.89404 -4.49268,17.39673 -17.45917,17.39877 -114.3255,0.0181 -228.65097,0.0109 -342.976467,-0.008 C 4.9689831,421.76603 0.28593109,417.17968 0.21503909,407.1455 0.06549509,385.98202 -0.00587791,364.81765 3.7808493e-4,343.65368 0.00287809,335.31991 5.1941801,330.12457 13.846958,329.89117 c 7.981507,-0.21527 15.973397,-0.0458 24.233588,-0.0458 0,-77.05475 0,-153.82565 0,-231.41029 -7.189596,0 -14.449217,0.0296 -21.708517,-0.007 C 4.4206361,98.36838 0.29412509,94.15918 0.26778809,82.06155 0.22025809,60.23048 0.41818709,38.395042 0.02430409,16.570266 -0.15179791,6.8126254 4.5324141,0.01511737 16.195233,0.04272037 c 108.992697,0.257931 217.986247,0.173088 326.979537,0.172314 5.99887,-4.6e-5 11.9982,-0.109631 17.99655,-0.212086 8.54245,-0.145908 14.2363,5.13313303 14.27661,13.73089163 0.11099,23.664688 0.10904,47.33021 0.0562,70.99518 -0.0182,8.16818 -5.56863,13.63101 -13.91022,13.76094 -8.13449,0.12669 -16.27255,0.0275 -24.49627,0.0275 0,39.43575 0,78.41821 -0.001,117.90071 M 273.96358,395.6205 c 3.61148,0 7.22299,0 11.17145,0 0,-1.83154 0.003,-2.96454 -5.2e-4,-4.09756 -0.0557,-15.83072 -0.12274,-31.66144 -0.16519,-47.49219 -0.0267,-9.97177 4.36316,-14.41647 14.20047,-14.42856 4.07721,-0.005 8.15439,-8.5e-4 12.19638,-8.5e-4 0,-82.94202 0,-165.51497 0,-248.46845 -82.83792,0 -165.40102,0 -248.112444,0 0,18.59612 -0.0107,36.8864 0.002,55.17668 0.0468,67.82711 0.10486,135.65419 0.14943,203.48128 0.007,11.27817 -4.7971,15.9708 -16.18292,15.93036 -7.28664,-0.0259 -14.57345,-0.005 -21.929914,-0.005 0,13.47327 0,26.55246 0,39.90955 82.758368,0 165.219428,0 248.671358,-0.005 M 134.98962,25.527193 c -36.576924,0 -73.153854,0 -109.673435,0 0,16.204742 0,31.791767 0,47.429927 4.592491,0 8.857121,0 13.109821,0 0.76001,-16.84793 7.51358,-17.79431 18.24619,-17.76747 88.326514,0.22089 176.653814,0.10911 264.980904,0.13688 1.79459,5.7e-4 3.66135,0.23144 5.37137,0.75596 8.36978,2.56727 10.10333,9.16814 9.6373,16.82762 4.91068,0 9.46973,0 14.07907,0 0,-15.89001 0,-31.479292 0,-47.3794 -71.79944,0 -143.27533,0 -215.75122,-0.0035 m 193.00012,370.13173 c 7.5839,0 15.16776,0 22.7666,0 0,-13.64887 0,-26.56012 0,-39.68119 -13.86727,0 -27.38736,0 -41.01465,0 0,13.44385 0,26.51246 0,39.67926 5.94312,0 11.59577,0 18.24805,0.002 z"
   id="path4" />



<path
   fill="#030303"
   opacity="1"
   stroke="none"
   d="m 215.68023,330.23569 c -0.45379,5.82898 -0.71167,11.31522 -0.79696,16.80414 -0.0757,4.87411 -1.68357,8.96695 -6.24659,11.06097 -4.50705,2.06836 -7.43533,-1.25268 -10.45416,-3.86023 -3.38193,-2.92114 -6.79816,-5.80258 -10.3788,-8.85412 -3.6898,3.33642 -7.17915,6.64682 -10.84047,9.7546 -3.10144,2.63257 -6.55281,5.06589 -10.83413,3.01911 -4.2287,-2.02161 -5.52234,-6.05844 -5.62774,-10.41214 -0.14061,-5.80856 -0.0347,-11.62314 -0.0347,-17.90955 -12.08756,-1.19607 -16.58,-9.44067 -19.52026,-19.73895 -1.32763,-4.65003 -4.15458,-8.99252 -6.87088,-13.09763 -4.21041,-6.3631 -4.9822,-9.59225 -0.50643,-15.4111 4.84528,-6.29925 7.12134,-13.3262 8.82797,-20.86221 2.18607,-9.6529 6.05558,-12.9802 15.74729,-13.62473 6.84459,-0.45517 12.39957,-3.13385 17.35358,-7.69964 7.27972,-6.70938 14.1111,-6.96851 21.85093,-0.81095 5.07596,4.03824 10.44477,6.60407 17.14911,7.07389 10.80106,0.75695 16.66766,6.80777 17.31738,17.6235 0.37888,6.30685 2.48175,11.47452 6.42166,16.31415 5.86652,7.20618 5.34748,10.47946 0.10554,18.24774 -2.9835,4.42142 -5.41529,9.54614 -6.71033,14.70209 -2.21802,8.83078 -6.35599,15.2525 -15.95197,17.68106 m -6.6297,-30.9895 c 0.70038,-2.2125 1.60349,-4.38349 2.06674,-6.64457 2.21619,-10.81646 -2.68307,-21.25192 -12.34564,-26.57043 -9.75845,-5.37128 -21.74527,-3.86917 -29.58543,3.70746 -8.10895,7.83636 -10.45157,19.67151 -5.40764,29.32727 4.48599,8.58761 11.76988,13.69077 21.48231,14.1568 10.37356,0.49774 18.20449,-4.29679 23.78966,-13.97653 z"
   id="path12" />
<path
   fill="#050405"
   opacity="1"
   stroke="none"
   d="m 284.77685,145.50344 c -3.15973,5.994 -8.3129,7.21897 -14.10324,7.20448 -27.3298,-0.0685 -54.65958,-0.16001 -81.98938,-0.1705 -27.99718,-0.0108 -55.99437,0.0637 -83.99156,0.0975 -1.33286,0.002 -2.66622,-0.0115 -3.99855,-0.0471 -8.829004,-0.23617 -13.987694,-4.97908 -13.962424,-12.82691 0.0269,-8.34865 5.12338,-13.10936 14.146944,-13.103 37.33034,0.0264 74.66068,0.0848 111.99102,0.11695 19.16485,0.0165 38.33007,-0.0672 57.49441,0.0323 9.12524,0.0474 13.77475,2.86517 15.33847,9.74336 0.60831,2.67552 -0.4509,5.73015 -0.92569,8.95287 z"
   id="path14" />
<path
   fill="#020202"
   opacity="1"
   stroke="none"
   d="m 157.48962,203.45004 c -19.32132,-0.002 -38.14339,0.0974 -56.96362,-0.0452 -9.675144,-0.0733 -15.286594,-7.32723 -12.967934,-16.26683 1.53656,-5.9242 6.77028,-9.66451 14.055744,-9.70191 16.65566,-0.0855 33.31194,-0.0486 49.96797,-0.0523 39.30805,-0.009 78.61606,-0.005 117.92411,-0.0263 5.54705,-0.003 10.77725,0.95279 13.98089,6.00055 5.36469,8.45278 0.14142,18.7175 -10.08099,19.97589 -2.46274,0.3032 -4.98828,0.12009 -7.48493,0.1203 -35.97708,0.003 -71.95416,-7.3e-4 -108.43124,-0.004 z"
   id="path16" />
<path
   fill="#f8fafa"
   opacity="1"
   stroke="none"
   d="m 208.84353,299.56513 c -5.37817,9.3608 -13.2091,14.15533 -23.58266,13.65759 -9.71243,-0.46603 -16.99632,-5.56919 -21.48231,-14.1568 -5.04393,-9.65576 -2.70131,-21.49091 5.40764,-29.32727 7.84016,-7.57663 19.82698,-9.07874 29.58543,-3.70746 9.66257,5.31851 14.56183,15.75397 12.34564,26.57043 -0.46325,2.26108 -1.36636,4.43207 -2.27374,6.96351 z"
   id="path18" />
</svg>
